<svg xmlns="http://www.w3.org/2000/svg" width="840" height="420" viewBox="0 0 840 420">
<rect width="840" height="420" fill="white"/>
<text x="30" y="30" font-size="20" font-family="Arial, sans-serif">Daily Sentiment Trend</text>
<line x1="40" y1="350" x2="800" y2="350" stroke="#d1d5db"/>
<line x1="40" y1="50" x2="40" y2="350" stroke="#d1d5db"/>
<polyline fill="none" stroke="#2563eb" stroke-width="3" points="20.0,350.0 22.3,350.0 24.5,350.0 26.8,350.0 29.0,350.0 31.3,50.0 33.6,350.0 35.8,50.0 38.1,350.0 40.4,50.0 42.6,50.0 44.9,350.0 47.1,50.0 49.4,350.0 51.7,350.0 53.9,350.0 56.2,350.0 58.5,350.0 60.7,50.0 63.0,350.0 65.2,50.0 67.5,50.0 69.8,50.0 72.0,350.0 74.3,350.0 76.5,50.0 78.8,350.0 81.1,50.0 83.3,350.0 85.6,350.0 87.9,50.0 90.1,350.0 92.4,50.0 94.6,50.0 96.9,50.0 99.2,350.0 101.4,350.0 103.7,350.0 106.0,50.0 108.2,50.0 110.5,275.0 112.7,50.0 115.0,350.0 117.3,350.0 119.5,50.0 121.8,50.0 124.0,350.0 126.3,50.0 128.6,350.0 130.8,50.0 133.1,350.0 135.4,350.0 137.6,350.0 139.9,350.0 142.1,350.0 144.4,50.0 146.7,50.0 148.9,50.0 151.2,350.0 153.5,50.0 155.7,350.0 158.0,50.0 160.2,350.0 162.5,50.0 164.8,50.0 167.0,50.0 169.3,50.0 171.5,50.0 173.8,350.0 176.1,50.0 178.3,350.0 180.6,50.0 182.9,50.0 185.1,350.0 187.4,350.0 189.6,350.0 191.9,50.0 194.2,350.0 196.4,350.0 198.7,50.0 201.0,50.0 203.2,350.0 205.5,50.0 207.7,350.0 210.0,50.0 212.3,350.0 214.5,50.0 216.8,350.0 219.0,50.0 221.3,350.0 223.6,50.0 225.8,50.0 228.1,50.0 230.4,50.0 232.6,350.0 234.9,350.0 237.1,350.0 239.4,50.0 241.7,350.0 243.9,50.0 246.2,350.0 248.5,50.0 250.7,350.0 253.0,50.0 255.2,350.0 257.5,50.0 259.8,50.0 262.0,50.0 264.3,350.0 266.5,350.0 268.8,350.0 271.1,350.0 273.3,50.0 275.6,50.0 277.9,50.0 280.1,50.0 282.4,350.0 284.6,350.0 286.9,50.0 289.2,350.0 291.4,350.0 293.7,50.0 296.0,350.0 298.2,350.0 300.5,50.0 302.7,125.0 305.0,350.0 307.3,50.0 309.5,350.0 311.8,350.0 314.0,50.0 316.3,50.0 318.6,50.0 320.8,50.0 323.1,50.0 325.4,350.0 327.6,50.0 329.9,50.0 332.1,50.0 334.4,350.0 336.7,350.0 338.9,350.0 341.2,350.0 343.5,50.0 345.7,50.0 348.0,350.0 350.2,350.0 352.5,350.0 354.8,50.0 357.0,275.0 359.3,350.0 361.5,350.0 363.8,50.0 366.1,50.0 368.3,350.0 370.6,50.0 372.9,350.0 375.1,50.0 377.4,350.0 379.6,275.0 381.9,350.0 384.2,350.0 386.4,350.0 388.7,350.0 391.0,350.0 393.2,350.0 395.5,50.0 397.7,50.0 400.0,350.0 402.3,50.0 404.5,50.0 406.8,50.0 409.0,350.0 411.3,50.0 413.6,350.0 415.8,50.0 418.1,350.0 420.4,350.0 422.6,350.0 424.9,350.0 427.1,50.0 429.4,350.0 431.7,50.0 433.9,350.0 436.2,50.0 438.5,50.0 440.7,50.0 443.0,50.0 445.2,50.0 447.5,50.0 449.8,50.0 452.0,350.0 454.3,350.0 456.5,50.0 458.8,50.0 461.1,50.0 463.3,50.0 465.6,200.0 467.9,125.0 470.1,275.0 472.4,200.0 474.6,275.0 476.9,50.0 479.2,50.0 481.4,250.0 483.7,250.0 486.0,225.0 488.2,250.0 490.5,225.0 492.7,162.5 495.0,200.0 497.3,200.0 499.5,137.5 501.8,175.0 504.0,150.0 506.3,200.0 508.6,125.0 510.8,300.0 513.1,250.0 515.4,200.0 517.6,200.0 519.9,260.0 522.1,275.0 524.4,200.0 526.7,187.5 528.9,275.0 531.2,200.0 533.5,189.3 535.7,150.0 538.0,150.0 540.2,150.0 542.5,185.0 544.8,200.0 547.0,200.0 549.3,200.0 551.5,237.5 553.8,200.0 556.1,200.0 558.3,200.0 560.6,200.0 562.9,200.0 565.1,218.8 567.4,200.0 569.6,200.0 571.9,200.0 574.2,200.0 576.4,200.0 578.7,200.0 581.0,170.0 583.2,200.0 585.5,140.0 587.7,191.7 590.0,200.0 592.3,125.0 594.5,200.0 596.8,200.0 599.0,250.0 601.3,200.0 603.6,200.0 605.8,200.0 608.1,50.0 610.4,350.0 612.6,200.0 614.9,350.0 617.1,100.0 619.4,200.0 621.7,200.0 623.9,200.0 626.2,200.0 628.5,200.0 630.7,200.0 633.0,200.0 635.2,200.0 637.5,162.5 639.8,200.0 642.0,125.0 644.3,200.0 646.5,200.0 648.8,200.0 651.1,137.5 653.3,92.9 655.6,50.0 657.9,200.0 660.1,125.0 662.4,200.0 664.6,200.0 666.9,200.0 669.2,200.0 671.4,125.0 673.7,225.0 676.0,200.0 678.2,50.0 680.5,50.0 682.7,117.5 685.0,159.1 687.3,200.0 689.5,350.0 691.8,200.0 694.0,200.0 696.3,350.0 698.6,350.0 700.8,350.0 703.1,200.0 705.4,200.0 707.6,200.0 709.9,200.0 712.1,150.0 714.4,200.0 716.7,125.0 718.9,192.9 721.2,200.0 723.5,200.0 725.7,200.0 728.0,162.5 730.2,350.0 732.5,200.0 734.8,350.0 737.0,275.0 739.3,300.0 741.5,185.0 743.8,170.0 746.1,200.0 748.3,200.0 750.6,200.0 752.9,133.3 755.1,194.8 757.4,150.0 759.6,163.1 761.9,159.7 764.2,174.6 766.4,150.5 768.7,180.1 771.0,110.0 773.2,159.8 775.5,166.0 777.7,175.9 780.0,175.7" />
</svg>