<svg xmlns="http://www.w3.org/2000/svg" width="840" height="420" viewBox="0 0 840 420">
<rect width="840" height="420" fill="white"/>
<text x="30" y="30" font-size="20" font-family="Arial, sans-serif">Portfolio Curves</text>
<line x1="40" y1="350" x2="800" y2="350" stroke="#d1d5db"/>
<line x1="40" y1="50" x2="40" y2="350" stroke="#d1d5db"/>
<polyline fill="none" stroke="#2563eb" stroke-width="3" points="20.0,88.6 22.4,113.3 24.8,143.4 27.2,160.4 29.7,163.5 32.1,152.7 34.5,166.6 36.9,166.6 39.3,186.7 41.7,187.5 44.1,154.2 46.5,167.4 49.0,151.2 51.4,158.9 53.8,157.3 56.2,162.7 58.6,171.2 61.0,177.4 63.4,172.0 65.8,175.9 68.3,165.1 70.7,128.8 73.1,99.4 75.5,50.0 77.9,88.6 80.3,87.1 82.7,106.4 85.1,94.0 87.6,100.2 90.0,121.8 92.4,114.9 94.8,119.5 97.2,116.4 99.6,115.6 102.0,107.9 104.4,111.0 106.9,112.5 109.3,147.3 111.7,141.1 114.1,141.1 116.5,143.4 118.9,131.9 121.3,136.5 123.7,139.6 126.2,141.1 128.6,129.5 131.0,142.7 133.4,129.5 135.8,129.5 138.2,118.7 140.6,128.8 143.0,132.6 145.5,148.1 147.9,148.8 150.3,151.2 152.7,146.5 155.1,148.8 157.5,147.3 159.9,138.8 162.3,138.0 164.8,143.4 167.2,150.4 169.6,250.0 172.0,238.4 174.4,224.5 176.8,202.9 179.2,194.4 181.7,173.6 184.1,182.8 186.5,182.0 188.9,189.8 191.3,189.8 193.7,188.2 196.1,189.0 198.5,185.9 201.0,195.2 203.4,191.3 205.8,204.4 208.2,212.2 210.6,199.0 213.0,188.2 215.4,186.7 217.8,184.4 220.3,192.1 222.7,182.8 225.1,184.4 227.5,183.6 229.9,199.0 232.3,189.8 234.7,189.8 237.1,172.8 239.6,175.9 242.0,164.3 244.4,155.8 246.8,181.3 249.2,191.3 251.6,195.2 254.0,177.4 256.4,191.3 258.9,172.8 261.3,175.1 263.7,142.7 266.1,153.5 268.5,138.0 270.9,156.6 273.3,153.5 275.7,148.1 278.2,146.5 280.6,161.2 283.0,170.5 285.4,174.3 287.8,185.9 290.2,187.5 292.6,184.4 295.0,171.2 297.5,156.6 299.9,160.4 302.3,164.3 304.7,159.7 307.1,161.2 309.5,163.5 311.9,162.7 314.3,169.7 316.8,172.8 319.2,163.5 321.6,159.7 324.0,161.2 326.4,158.1 328.8,161.2 331.2,162.7 333.7,156.6 336.1,153.5 338.5,152.7 340.9,142.7 343.3,140.3 345.7,145.4 348.1,130.7 350.5,122.2 353.0,89.8 355.4,97.5 357.8,101.4 360.2,129.2 362.6,132.2 365.0,125.3 367.4,124.5 369.8,125.3 372.3,128.4 374.7,134.6 377.1,122.2 379.5,114.5 381.9,116.0 384.3,127.6 386.7,123.7 389.1,114.5 391.6,120.7 394.0,103.7 396.4,110.6 398.8,104.4 401.2,110.6 403.6,111.4 406.0,137.6 408.4,141.5 410.9,151.5 413.3,160.0 415.7,162.4 418.1,170.8 420.5,169.3 422.9,160.0 425.3,163.9 427.7,150.8 430.2,147.7 432.6,151.5 435.0,160.8 437.4,154.6 439.8,160.8 442.2,161.6 444.6,172.4 447.0,176.3 449.5,180.9 451.9,187.1 454.3,182.4 456.7,189.4 459.1,173.9 461.5,181.7 463.9,177.8 466.3,170.8 468.8,161.6 471.2,156.9 473.6,153.9 476.0,130.7 478.4,92.9 480.8,158.5 483.2,166.2 485.7,165.4 488.1,164.7 490.5,166.2 492.9,140.0 495.3,148.5 497.7,156.2 500.1,157.7 502.5,166.2 505.0,165.4 507.4,163.1 509.8,173.2 512.2,173.9 514.6,171.6 517.0,175.5 519.4,169.3 521.8,173.9 524.3,177.8 526.7,173.9 529.1,177.8 531.5,180.1 533.9,186.3 536.3,189.4 538.7,192.5 541.1,211.8 543.6,204.1 546.0,202.5 548.4,211.0 550.8,218.0 553.2,196.3 555.6,197.1 558.0,201.0 560.4,210.2 562.9,213.3 565.3,207.9 567.7,206.4 570.1,214.1 572.5,213.3 574.9,222.6 577.3,219.5 579.7,226.4 582.2,187.1 584.6,207.9 587.0,217.2 589.4,211.0 591.8,187.8 594.2,201.7 596.6,197.1 599.0,199.4 601.5,192.5 603.9,199.4 606.3,199.4 608.7,202.5 611.1,204.8 613.5,194.0 615.9,203.3 618.3,202.5 620.8,203.3 623.2,195.6 625.6,205.6 628.0,211.0 630.4,213.3 632.8,215.6 635.2,215.6 637.7,217.2 640.1,221.0 642.5,221.8 644.9,214.9 647.3,224.9 649.7,232.6 652.1,246.5 654.5,239.6 657.0,259.7 659.4,268.1 661.8,263.5 664.2,258.9 666.6,248.1 669.0,254.2 671.4,251.9 673.8,251.9 676.3,255.0 678.7,259.7 681.1,265.8 683.5,255.0 685.9,263.5 688.3,265.1 690.7,264.3 693.1,278.2 695.6,270.5 698.0,282.0 700.4,281.3 702.8,279.0 705.2,285.9 707.6,283.6 710.0,277.4 712.4,281.3 714.9,282.8 717.3,280.5 719.7,281.3 722.1,286.7 724.5,298.3 726.9,316.0 729.3,343.1 731.7,335.3 734.2,335.3 736.6,346.1 739.0,345.4 741.4,350.0 743.8,346.1 746.2,343.8 748.6,347.7 751.0,343.8 753.5,347.7 755.9,334.6 758.3,344.6 760.7,336.9 763.1,338.4 765.5,337.6 767.9,343.1 770.3,334.6 772.8,341.5 775.2,343.1 777.6,349.2 780.0,346.1" />
<text x="30" y="380" font-size="13" fill="#2563eb">buy_and_hold</text>
<polyline fill="none" stroke="#16a34a" stroke-width="3" points="20.0,88.6 22.4,88.6 24.8,88.6 27.3,88.6 29.7,88.6 32.1,88.6 34.5,88.6 36.9,88.6 39.4,88.6 41.8,88.6 44.2,88.6 46.6,88.6 49.0,88.6 51.5,88.6 53.9,88.6 56.3,88.6 58.7,88.6 61.1,88.6 63.6,88.6 66.0,88.6 68.4,88.6 70.8,88.6 73.2,88.6 75.7,88.6 78.1,88.6 80.5,88.6 82.9,88.6 85.4,88.6 87.8,88.6 90.2,88.6 92.6,88.6 95.0,88.6 97.5,88.6 99.9,88.6 102.3,88.6 104.7,88.6 107.1,88.6 109.6,88.6 112.0,88.6 114.4,88.6 116.8,88.6 119.2,88.6 121.7,88.6 124.1,88.6 126.5,88.6 128.9,88.6 131.3,88.6 133.8,88.6 136.2,88.6 138.6,88.6 141.0,88.6 143.4,88.6 145.9,88.6 148.3,88.6 150.7,88.6 153.1,88.6 155.5,88.6 158.0,88.6 160.4,88.6 162.8,88.6 165.2,88.6 167.6,88.6 170.1,88.6 172.5,88.6 174.9,88.6 177.3,88.6 179.7,88.6 182.2,88.6 184.6,88.6 187.0,88.6 189.4,88.6 191.8,88.6 194.3,88.6 196.7,88.6 199.1,88.6 201.5,88.6 203.9,88.6 206.4,88.6 208.8,88.6 211.2,88.6 213.6,88.6 216.1,88.6 218.5,88.6 220.9,88.6 223.3,88.6 225.7,88.6 228.2,88.6 230.6,88.6 233.0,88.6 235.4,88.6 237.8,88.6 240.3,88.6 242.7,88.6 245.1,88.6 247.5,88.6 249.9,88.6 252.4,88.6 254.8,88.6 257.2,88.6 259.6,88.6 262.0,88.6 264.5,88.6 266.9,88.6 269.3,88.6 271.7,88.6 274.1,88.6 276.6,88.6 279.0,88.6 281.4,88.6 283.8,88.6 286.2,88.6 288.7,88.6 291.1,88.6 293.5,88.6 295.9,88.6 298.3,88.6 300.8,88.6 303.2,88.6 305.6,88.6 308.0,88.6 310.4,88.6 312.9,88.6 315.3,88.6 317.7,88.6 320.1,88.6 322.5,88.6 325.0,88.6 327.4,88.6 329.8,88.6 332.2,88.6 334.6,88.6 337.1,88.6 339.5,88.6 341.9,88.6 344.3,88.6 346.8,88.6 349.2,88.6 351.6,88.6 354.0,88.6 356.4,88.6 358.9,88.6 361.3,88.6 363.7,88.6 366.1,88.6 368.5,88.6 371.0,88.6 373.4,88.6 375.8,88.6 378.2,88.6 380.6,88.6 383.1,88.6 385.5,88.6 387.9,88.6 390.3,88.6 392.7,88.6 395.2,88.6 397.6,88.6 400.0,88.6 402.4,88.6 404.8,88.6 407.3,88.6 409.7,88.6 412.1,88.6 414.5,88.6 416.9,88.6 419.4,88.6 421.8,88.6 424.2,88.6 426.6,88.6 429.0,88.6 431.5,88.6 433.9,88.6 436.3,88.6 438.7,88.6 441.1,88.6 443.6,88.6 446.0,88.6 448.4,88.6 450.8,88.6 453.2,88.6 455.7,88.6 458.1,88.6 460.5,88.6 462.9,88.6 465.4,88.6 467.8,88.6 470.2,88.6 472.6,88.6 475.0,88.6 477.5,88.6 479.9,88.6 482.3,88.6 484.7,88.6 487.1,88.6 489.6,88.6 492.0,88.6 494.4,88.6 496.8,88.6 499.2,88.6 501.7,88.6 504.1,88.6 506.5,88.6 508.9,88.6 511.3,88.6 513.8,88.6 516.2,88.6 518.6,88.6 521.0,88.6 523.4,88.6 525.9,88.6 528.3,88.6 530.7,88.6 533.1,88.6 535.5,88.6 538.0,88.6 540.4,88.6 542.8,88.6 545.2,88.6 547.6,88.6 550.1,88.6 552.5,88.6 554.9,88.6 557.3,88.6 559.7,88.6 562.2,88.6 564.6,88.6 567.0,88.6 569.4,88.6 571.8,88.6 574.3,88.6 576.7,88.6 579.1,88.6 581.5,88.6 583.9,88.6 586.4,88.6 588.8,88.6 591.2,88.6 593.6,88.6 596.1,88.6 598.5,88.6 600.9,88.6 603.3,88.6 605.7,88.6 608.2,88.6 610.6,88.6 613.0,88.6 615.4,88.6 617.8,88.6 620.3,88.6 622.7,88.6 625.1,88.6 627.5,88.6 629.9,88.6 632.4,88.6 634.8,88.6 637.2,88.6 639.6,88.6 642.0,88.6 644.5,88.6 646.9,88.6 649.3,88.6 651.7,88.6 654.1,88.6 656.6,88.6 659.0,88.6 661.4,88.6 663.8,88.6 666.2,88.6 668.7,88.6 671.1,88.6 673.5,88.6 675.9,88.6 678.3,88.6 680.8,88.6 683.2,88.6 685.6,88.6 688.0,88.6 690.4,88.6 692.9,88.6 695.3,88.6 697.7,88.6 700.1,88.6 702.5,88.6 705.0,88.6 707.4,88.6 709.8,88.6 712.2,88.6 714.6,88.6 717.1,88.6 719.5,88.6 721.9,88.6 724.3,88.6 726.8,88.6 729.2,88.6 731.6,88.6 734.0,88.6 736.4,88.6 738.9,88.6 741.3,88.6 743.7,88.6 746.1,88.6 748.5,88.6 751.0,88.6 753.4,88.6 755.8,88.6 758.2,88.6 760.6,88.6 763.1,88.6 765.5,88.6 767.9,88.6 770.3,88.6 772.7,88.6 775.2,88.6 777.6,88.6 780.0,88.6" />
<text x="30" y="398" font-size="13" fill="#16a34a">dqn_with_nlp</text>
<polyline fill="none" stroke="#dc2626" stroke-width="3" points="20.0,88.6 22.4,88.6 24.8,88.6 27.3,88.6 29.7,88.6 32.1,88.6 34.5,88.6 36.9,88.6 39.4,88.6 41.8,88.6 44.2,88.6 46.6,88.6 49.0,88.6 51.5,88.6 53.9,88.6 56.3,88.6 58.7,88.6 61.1,88.6 63.6,88.6 66.0,88.6 68.4,88.6 70.8,88.6 73.2,88.6 75.7,88.6 78.1,88.6 80.5,88.6 82.9,88.6 85.4,88.6 87.8,88.6 90.2,88.6 92.6,88.6 95.0,88.6 97.5,88.6 99.9,88.6 102.3,88.6 104.7,88.6 107.1,88.6 109.6,88.6 112.0,88.6 114.4,88.6 116.8,88.6 119.2,88.6 121.7,88.6 124.1,88.6 126.5,88.6 128.9,88.6 131.3,88.6 133.8,88.6 136.2,88.6 138.6,88.6 141.0,88.6 143.4,88.6 145.9,88.6 148.3,88.6 150.7,88.6 153.1,88.6 155.5,88.6 158.0,88.6 160.4,88.6 162.8,88.6 165.2,88.6 167.6,88.6 170.1,88.6 172.5,88.6 174.9,88.6 177.3,88.6 179.7,88.6 182.2,88.6 184.6,88.6 187.0,88.6 189.4,88.6 191.8,88.6 194.3,88.6 196.7,88.6 199.1,88.6 201.5,88.6 203.9,88.6 206.4,88.6 208.8,88.6 211.2,88.6 213.6,88.6 216.1,88.6 218.5,88.6 220.9,88.6 223.3,88.6 225.7,88.6 228.2,88.6 230.6,88.6 233.0,88.6 235.4,88.6 237.8,88.6 240.3,88.6 242.7,88.6 245.1,88.6 247.5,88.6 249.9,88.6 252.4,88.6 254.8,88.6 257.2,88.6 259.6,88.6 262.0,88.6 264.5,88.6 266.9,88.6 269.3,88.6 271.7,88.6 274.1,88.6 276.6,88.6 279.0,88.6 281.4,88.6 283.8,88.6 286.2,88.6 288.7,88.6 291.1,88.6 293.5,88.6 295.9,88.6 298.3,88.6 300.8,88.6 303.2,88.6 305.6,88.6 308.0,88.6 310.4,88.6 312.9,88.6 315.3,88.6 317.7,88.6 320.1,88.6 322.5,88.6 325.0,88.6 327.4,88.6 329.8,88.6 332.2,88.6 334.6,88.6 337.1,88.6 339.5,88.6 341.9,88.6 344.3,88.6 346.8,88.6 349.2,88.6 351.6,88.6 354.0,88.6 356.4,88.6 358.9,88.6 361.3,88.6 363.7,88.6 366.1,88.6 368.5,88.6 371.0,88.6 373.4,88.6 375.8,88.6 378.2,88.6 380.6,88.6 383.1,88.6 385.5,88.6 387.9,88.6 390.3,88.6 392.7,88.6 395.2,88.6 397.6,88.6 400.0,88.6 402.4,88.6 404.8,88.6 407.3,88.6 409.7,88.6 412.1,88.6 414.5,88.6 416.9,88.6 419.4,88.6 421.8,88.6 424.2,88.6 426.6,88.6 429.0,88.6 431.5,88.6 433.9,88.6 436.3,88.6 438.7,88.6 441.1,88.6 443.6,88.6 446.0,88.6 448.4,88.6 450.8,88.6 453.2,88.6 455.7,88.6 458.1,88.6 460.5,88.6 462.9,88.6 465.4,88.6 467.8,88.6 470.2,88.6 472.6,88.6 475.0,88.6 477.5,88.6 479.9,88.6 482.3,88.6 484.7,88.6 487.1,88.6 489.6,88.6 492.0,88.6 494.4,88.6 496.8,88.6 499.2,88.6 501.7,88.6 504.1,88.6 506.5,88.6 508.9,88.6 511.3,88.6 513.8,88.6 516.2,88.6 518.6,88.6 521.0,88.6 523.4,88.6 525.9,88.6 528.3,88.6 530.7,88.6 533.1,88.6 535.5,88.6 538.0,88.6 540.4,88.6 542.8,88.6 545.2,88.6 547.6,88.6 550.1,88.6 552.5,88.6 554.9,88.6 557.3,88.6 559.7,88.6 562.2,88.6 564.6,88.6 567.0,88.6 569.4,88.6 571.8,88.6 574.3,88.6 576.7,88.6 579.1,88.6 581.5,88.6 583.9,88.6 586.4,88.6 588.8,88.6 591.2,88.6 593.6,88.6 596.1,88.6 598.5,88.6 600.9,88.6 603.3,88.6 605.7,88.6 608.2,88.6 610.6,88.6 613.0,88.6 615.4,88.6 617.8,88.6 620.3,88.6 622.7,88.6 625.1,88.6 627.5,88.6 629.9,88.6 632.4,88.6 634.8,88.6 637.2,88.6 639.6,88.6 642.0,88.6 644.5,88.6 646.9,88.6 649.3,88.6 651.7,88.6 654.1,88.6 656.6,88.6 659.0,88.6 661.4,88.6 663.8,88.6 666.2,88.6 668.7,88.6 671.1,88.6 673.5,88.6 675.9,88.6 678.3,88.6 680.8,88.6 683.2,88.6 685.6,88.6 688.0,88.6 690.4,88.6 692.9,88.6 695.3,88.6 697.7,88.6 700.1,88.6 702.5,88.6 705.0,88.6 707.4,88.6 709.8,88.6 712.2,88.6 714.6,88.6 717.1,88.6 719.5,88.6 721.9,88.6 724.3,88.6 726.8,88.6 729.2,88.6 731.6,88.6 734.0,88.6 736.4,88.6 738.9,88.6 741.3,88.6 743.7,88.6 746.1,88.6 748.5,88.6 751.0,88.6 753.4,88.6 755.8,88.6 758.2,88.6 760.6,88.6 763.1,88.6 765.5,88.6 767.9,88.6 770.3,88.6 772.7,88.6 775.2,88.6 777.6,88.6 780.0,88.6" />
<text x="30" y="416" font-size="13" fill="#dc2626">dqn_without_nlp</text>
</svg>