<svg xmlns="http://www.w3.org/2000/svg" width="840" height="420" viewBox="0 0 840 420">
<rect width="840" height="420" fill="white"/>
<text x="30" y="30" font-size="20" font-family="Arial, sans-serif">Drawdown Curves</text>
<line x1="40" y1="350" x2="800" y2="350" stroke="#d1d5db"/>
<line x1="40" y1="50" x2="40" y2="350" stroke="#d1d5db"/>
<polyline fill="none" stroke="#2563eb" stroke-width="3" points="20.0,50.0 22.4,75.6 24.8,106.9 27.2,124.5 29.7,127.7 32.1,116.5 34.5,130.9 36.9,130.9 39.3,151.7 41.7,152.5 44.1,118.1 46.5,131.7 49.0,114.9 51.4,122.9 53.8,121.3 56.2,126.9 58.6,135.7 61.0,142.1 63.4,136.5 65.8,140.5 68.3,129.3 70.7,91.7 73.1,61.2 75.5,50.0 77.9,88.6 80.3,87.1 82.7,106.4 85.1,94.0 87.6,100.2 90.0,121.8 92.4,114.9 94.8,119.5 97.2,116.4 99.6,115.6 102.0,107.9 104.4,111.0 106.9,112.5 109.3,147.3 111.7,141.1 114.1,141.1 116.5,143.4 118.9,131.9 121.3,136.5 123.7,139.6 126.2,141.1 128.6,129.5 131.0,142.7 133.4,129.5 135.8,129.5 138.2,118.7 140.6,128.8 143.0,132.6 145.5,148.1 147.9,148.8 150.3,151.2 152.7,146.5 155.1,148.8 157.5,147.3 159.9,138.8 162.3,138.0 164.8,143.4 167.2,150.4 169.6,250.0 172.0,238.4 174.4,224.5 176.8,202.9 179.2,194.4 181.7,173.6 184.1,182.8 186.5,182.0 188.9,189.8 191.3,189.8 193.7,188.2 196.1,189.0 198.5,185.9 201.0,195.2 203.4,191.3 205.8,204.4 208.2,212.2 210.6,199.0 213.0,188.2 215.4,186.7 217.8,184.4 220.3,192.1 222.7,182.8 225.1,184.4 227.5,183.6 229.9,199.0 232.3,189.8 234.7,189.8 237.1,172.8 239.6,175.9 242.0,164.3 244.4,155.8 246.8,181.3 249.2,191.3 251.6,195.2 254.0,177.4 256.4,191.3 258.9,172.8 261.3,175.1 263.7,142.7 266.1,153.5 268.5,138.0 270.9,156.6 273.3,153.5 275.7,148.1 278.2,146.5 280.6,161.2 283.0,170.5 285.4,174.3 287.8,185.9 290.2,187.5 292.6,184.4 295.0,171.2 297.5,156.6 299.9,160.4 302.3,164.3 304.7,159.7 307.1,161.2 309.5,163.5 311.9,162.7 314.3,169.7 316.8,172.8 319.2,163.5 321.6,159.7 324.0,161.2 326.4,158.1 328.8,161.2 331.2,162.7 333.7,156.6 336.1,153.5 338.5,152.7 340.9,142.7 343.3,140.3 345.7,145.4 348.1,130.7 350.5,122.2 353.0,89.8 355.4,97.5 357.8,101.4 360.2,129.2 362.6,132.2 365.0,125.3 367.4,124.5 369.8,125.3 372.3,128.4 374.7,134.6 377.1,122.2 379.5,114.5 381.9,116.0 384.3,127.6 386.7,123.7 389.1,114.5 391.6,120.7 394.0,103.7 396.4,110.6 398.8,104.4 401.2,110.6 403.6,111.4 406.0,137.6 408.4,141.5 410.9,151.5 413.3,160.0 415.7,162.4 418.1,170.8 420.5,169.3 422.9,160.0 425.3,163.9 427.7,150.8 430.2,147.7 432.6,151.5 435.0,160.8 437.4,154.6 439.8,160.8 442.2,161.6 444.6,172.4 447.0,176.3 449.5,180.9 451.9,187.1 454.3,182.4 456.7,189.4 459.1,173.9 461.5,181.7 463.9,177.8 466.3,170.8 468.8,161.6 471.2,156.9 473.6,153.9 476.0,130.7 478.4,92.9 480.8,158.5 483.2,166.2 485.7,165.4 488.1,164.7 490.5,166.2 492.9,140.0 495.3,148.5 497.7,156.2 500.1,157.7 502.5,166.2 505.0,165.4 507.4,163.1 509.8,173.2 512.2,173.9 514.6,171.6 517.0,175.5 519.4,169.3 521.8,173.9 524.3,177.8 526.7,173.9 529.1,177.8 531.5,180.1 533.9,186.3 536.3,189.4 538.7,192.5 541.1,211.8 543.6,204.1 546.0,202.5 548.4,211.0 550.8,218.0 553.2,196.3 555.6,197.1 558.0,201.0 560.4,210.2 562.9,213.3 565.3,207.9 567.7,206.4 570.1,214.1 572.5,213.3 574.9,222.6 577.3,219.5 579.7,226.4 582.2,187.1 584.6,207.9 587.0,217.2 589.4,211.0 591.8,187.8 594.2,201.7 596.6,197.1 599.0,199.4 601.5,192.5 603.9,199.4 606.3,199.4 608.7,202.5 611.1,204.8 613.5,194.0 615.9,203.3 618.3,202.5 620.8,203.3 623.2,195.6 625.6,205.6 628.0,211.0 630.4,213.3 632.8,215.6 635.2,215.6 637.7,217.2 640.1,221.0 642.5,221.8 644.9,214.9 647.3,224.9 649.7,232.6 652.1,246.5 654.5,239.6 657.0,259.7 659.4,268.1 661.8,263.5 664.2,258.9 666.6,248.1 669.0,254.2 671.4,251.9 673.8,251.9 676.3,255.0 678.7,259.7 681.1,265.8 683.5,255.0 685.9,263.5 688.3,265.1 690.7,264.3 693.1,278.2 695.6,270.5 698.0,282.0 700.4,281.3 702.8,279.0 705.2,285.9 707.6,283.6 710.0,277.4 712.4,281.3 714.9,282.8 717.3,280.5 719.7,281.3 722.1,286.7 724.5,298.3 726.9,316.0 729.3,343.1 731.7,335.3 734.2,335.3 736.6,346.1 739.0,345.4 741.4,350.0 743.8,346.1 746.2,343.8 748.6,347.7 751.0,343.8 753.5,347.7 755.9,334.6 758.3,344.6 760.7,336.9 763.1,338.4 765.5,337.6 767.9,343.1 770.3,334.6 772.8,341.5 775.2,343.1 777.6,349.2 780.0,346.1" />
<text x="30" y="380" font-size="13" fill="#2563eb">buy_and_hold</text>
<polyline fill="none" stroke="#16a34a" stroke-width="3" points="20.0,50.0 22.4,50.0 24.8,50.0 27.3,50.0 29.7,50.0 32.1,50.0 34.5,50.0 36.9,50.0 39.4,50.0 41.8,50.0 44.2,50.0 46.6,50.0 49.0,50.0 51.5,50.0 53.9,50.0 56.3,50.0 58.7,50.0 61.1,50.0 63.6,50.0 66.0,50.0 68.4,50.0 70.8,50.0 73.2,50.0 75.7,50.0 78.1,50.0 80.5,50.0 82.9,50.0 85.4,50.0 87.8,50.0 90.2,50.0 92.6,50.0 95.0,50.0 97.5,50.0 99.9,50.0 102.3,50.0 104.7,50.0 107.1,50.0 109.6,50.0 112.0,50.0 114.4,50.0 116.8,50.0 119.2,50.0 121.7,50.0 124.1,50.0 126.5,50.0 128.9,50.0 131.3,50.0 133.8,50.0 136.2,50.0 138.6,50.0 141.0,50.0 143.4,50.0 145.9,50.0 148.3,50.0 150.7,50.0 153.1,50.0 155.5,50.0 158.0,50.0 160.4,50.0 162.8,50.0 165.2,50.0 167.6,50.0 170.1,50.0 172.5,50.0 174.9,50.0 177.3,50.0 179.7,50.0 182.2,50.0 184.6,50.0 187.0,50.0 189.4,50.0 191.8,50.0 194.3,50.0 196.7,50.0 199.1,50.0 201.5,50.0 203.9,50.0 206.4,50.0 208.8,50.0 211.2,50.0 213.6,50.0 216.1,50.0 218.5,50.0 220.9,50.0 223.3,50.0 225.7,50.0 228.2,50.0 230.6,50.0 233.0,50.0 235.4,50.0 237.8,50.0 240.3,50.0 242.7,50.0 245.1,50.0 247.5,50.0 249.9,50.0 252.4,50.0 254.8,50.0 257.2,50.0 259.6,50.0 262.0,50.0 264.5,50.0 266.9,50.0 269.3,50.0 271.7,50.0 274.1,50.0 276.6,50.0 279.0,50.0 281.4,50.0 283.8,50.0 286.2,50.0 288.7,50.0 291.1,50.0 293.5,50.0 295.9,50.0 298.3,50.0 300.8,50.0 303.2,50.0 305.6,50.0 308.0,50.0 310.4,50.0 312.9,50.0 315.3,50.0 317.7,50.0 320.1,50.0 322.5,50.0 325.0,50.0 327.4,50.0 329.8,50.0 332.2,50.0 334.6,50.0 337.1,50.0 339.5,50.0 341.9,50.0 344.3,50.0 346.8,50.0 349.2,50.0 351.6,50.0 354.0,50.0 356.4,50.0 358.9,50.0 361.3,50.0 363.7,50.0 366.1,50.0 368.5,50.0 371.0,50.0 373.4,50.0 375.8,50.0 378.2,50.0 380.6,50.0 383.1,50.0 385.5,50.0 387.9,50.0 390.3,50.0 392.7,50.0 395.2,50.0 397.6,50.0 400.0,50.0 402.4,50.0 404.8,50.0 407.3,50.0 409.7,50.0 412.1,50.0 414.5,50.0 416.9,50.0 419.4,50.0 421.8,50.0 424.2,50.0 426.6,50.0 429.0,50.0 431.5,50.0 433.9,50.0 436.3,50.0 438.7,50.0 441.1,50.0 443.6,50.0 446.0,50.0 448.4,50.0 450.8,50.0 453.2,50.0 455.7,50.0 458.1,50.0 460.5,50.0 462.9,50.0 465.4,50.0 467.8,50.0 470.2,50.0 472.6,50.0 475.0,50.0 477.5,50.0 479.9,50.0 482.3,50.0 484.7,50.0 487.1,50.0 489.6,50.0 492.0,50.0 494.4,50.0 496.8,50.0 499.2,50.0 501.7,50.0 504.1,50.0 506.5,50.0 508.9,50.0 511.3,50.0 513.8,50.0 516.2,50.0 518.6,50.0 521.0,50.0 523.4,50.0 525.9,50.0 528.3,50.0 530.7,50.0 533.1,50.0 535.5,50.0 538.0,50.0 540.4,50.0 542.8,50.0 545.2,50.0 547.6,50.0 550.1,50.0 552.5,50.0 554.9,50.0 557.3,50.0 559.7,50.0 562.2,50.0 564.6,50.0 567.0,50.0 569.4,50.0 571.8,50.0 574.3,50.0 576.7,50.0 579.1,50.0 581.5,50.0 583.9,50.0 586.4,50.0 588.8,50.0 591.2,50.0 593.6,50.0 596.1,50.0 598.5,50.0 600.9,50.0 603.3,50.0 605.7,50.0 608.2,50.0 610.6,50.0 613.0,50.0 615.4,50.0 617.8,50.0 620.3,50.0 622.7,50.0 625.1,50.0 627.5,50.0 629.9,50.0 632.4,50.0 634.8,50.0 637.2,50.0 639.6,50.0 642.0,50.0 644.5,50.0 646.9,50.0 649.3,50.0 651.7,50.0 654.1,50.0 656.6,50.0 659.0,50.0 661.4,50.0 663.8,50.0 666.2,50.0 668.7,50.0 671.1,50.0 673.5,50.0 675.9,50.0 678.3,50.0 680.8,50.0 683.2,50.0 685.6,50.0 688.0,50.0 690.4,50.0 692.9,50.0 695.3,50.0 697.7,50.0 700.1,50.0 702.5,50.0 705.0,50.0 707.4,50.0 709.8,50.0 712.2,50.0 714.6,50.0 717.1,50.0 719.5,50.0 721.9,50.0 724.3,50.0 726.8,50.0 729.2,50.0 731.6,50.0 734.0,50.0 736.4,50.0 738.9,50.0 741.3,50.0 743.7,50.0 746.1,50.0 748.5,50.0 751.0,50.0 753.4,50.0 755.8,50.0 758.2,50.0 760.6,50.0 763.1,50.0 765.5,50.0 767.9,50.0 770.3,50.0 772.7,50.0 775.2,50.0 777.6,50.0 780.0,50.0" />
<text x="30" y="398" font-size="13" fill="#16a34a">dqn_with_nlp</text>
<polyline fill="none" stroke="#dc2626" stroke-width="3" points="20.0,50.0 22.4,50.0 24.8,50.0 27.3,50.0 29.7,50.0 32.1,50.0 34.5,50.0 36.9,50.0 39.4,50.0 41.8,50.0 44.2,50.0 46.6,50.0 49.0,50.0 51.5,50.0 53.9,50.0 56.3,50.0 58.7,50.0 61.1,50.0 63.6,50.0 66.0,50.0 68.4,50.0 70.8,50.0 73.2,50.0 75.7,50.0 78.1,50.0 80.5,50.0 82.9,50.0 85.4,50.0 87.8,50.0 90.2,50.0 92.6,50.0 95.0,50.0 97.5,50.0 99.9,50.0 102.3,50.0 104.7,50.0 107.1,50.0 109.6,50.0 112.0,50.0 114.4,50.0 116.8,50.0 119.2,50.0 121.7,50.0 124.1,50.0 126.5,50.0 128.9,50.0 131.3,50.0 133.8,50.0 136.2,50.0 138.6,50.0 141.0,50.0 143.4,50.0 145.9,50.0 148.3,50.0 150.7,50.0 153.1,50.0 155.5,50.0 158.0,50.0 160.4,50.0 162.8,50.0 165.2,50.0 167.6,50.0 170.1,50.0 172.5,50.0 174.9,50.0 177.3,50.0 179.7,50.0 182.2,50.0 184.6,50.0 187.0,50.0 189.4,50.0 191.8,50.0 194.3,50.0 196.7,50.0 199.1,50.0 201.5,50.0 203.9,50.0 206.4,50.0 208.8,50.0 211.2,50.0 213.6,50.0 216.1,50.0 218.5,50.0 220.9,50.0 223.3,50.0 225.7,50.0 228.2,50.0 230.6,50.0 233.0,50.0 235.4,50.0 237.8,50.0 240.3,50.0 242.7,50.0 245.1,50.0 247.5,50.0 249.9,50.0 252.4,50.0 254.8,50.0 257.2,50.0 259.6,50.0 262.0,50.0 264.5,50.0 266.9,50.0 269.3,50.0 271.7,50.0 274.1,50.0 276.6,50.0 279.0,50.0 281.4,50.0 283.8,50.0 286.2,50.0 288.7,50.0 291.1,50.0 293.5,50.0 295.9,50.0 298.3,50.0 300.8,50.0 303.2,50.0 305.6,50.0 308.0,50.0 310.4,50.0 312.9,50.0 315.3,50.0 317.7,50.0 320.1,50.0 322.5,50.0 325.0,50.0 327.4,50.0 329.8,50.0 332.2,50.0 334.6,50.0 337.1,50.0 339.5,50.0 341.9,50.0 344.3,50.0 346.8,50.0 349.2,50.0 351.6,50.0 354.0,50.0 356.4,50.0 358.9,50.0 361.3,50.0 363.7,50.0 366.1,50.0 368.5,50.0 371.0,50.0 373.4,50.0 375.8,50.0 378.2,50.0 380.6,50.0 383.1,50.0 385.5,50.0 387.9,50.0 390.3,50.0 392.7,50.0 395.2,50.0 397.6,50.0 400.0,50.0 402.4,50.0 404.8,50.0 407.3,50.0 409.7,50.0 412.1,50.0 414.5,50.0 416.9,50.0 419.4,50.0 421.8,50.0 424.2,50.0 426.6,50.0 429.0,50.0 431.5,50.0 433.9,50.0 436.3,50.0 438.7,50.0 441.1,50.0 443.6,50.0 446.0,50.0 448.4,50.0 450.8,50.0 453.2,50.0 455.7,50.0 458.1,50.0 460.5,50.0 462.9,50.0 465.4,50.0 467.8,50.0 470.2,50.0 472.6,50.0 475.0,50.0 477.5,50.0 479.9,50.0 482.3,50.0 484.7,50.0 487.1,50.0 489.6,50.0 492.0,50.0 494.4,50.0 496.8,50.0 499.2,50.0 501.7,50.0 504.1,50.0 506.5,50.0 508.9,50.0 511.3,50.0 513.8,50.0 516.2,50.0 518.6,50.0 521.0,50.0 523.4,50.0 525.9,50.0 528.3,50.0 530.7,50.0 533.1,50.0 535.5,50.0 538.0,50.0 540.4,50.0 542.8,50.0 545.2,50.0 547.6,50.0 550.1,50.0 552.5,50.0 554.9,50.0 557.3,50.0 559.7,50.0 562.2,50.0 564.6,50.0 567.0,50.0 569.4,50.0 571.8,50.0 574.3,50.0 576.7,50.0 579.1,50.0 581.5,50.0 583.9,50.0 586.4,50.0 588.8,50.0 591.2,50.0 593.6,50.0 596.1,50.0 598.5,50.0 600.9,50.0 603.3,50.0 605.7,50.0 608.2,50.0 610.6,50.0 613.0,50.0 615.4,50.0 617.8,50.0 620.3,50.0 622.7,50.0 625.1,50.0 627.5,50.0 629.9,50.0 632.4,50.0 634.8,50.0 637.2,50.0 639.6,50.0 642.0,50.0 644.5,50.0 646.9,50.0 649.3,50.0 651.7,50.0 654.1,50.0 656.6,50.0 659.0,50.0 661.4,50.0 663.8,50.0 666.2,50.0 668.7,50.0 671.1,50.0 673.5,50.0 675.9,50.0 678.3,50.0 680.8,50.0 683.2,50.0 685.6,50.0 688.0,50.0 690.4,50.0 692.9,50.0 695.3,50.0 697.7,50.0 700.1,50.0 702.5,50.0 705.0,50.0 707.4,50.0 709.8,50.0 712.2,50.0 714.6,50.0 717.1,50.0 719.5,50.0 721.9,50.0 724.3,50.0 726.8,50.0 729.2,50.0 731.6,50.0 734.0,50.0 736.4,50.0 738.9,50.0 741.3,50.0 743.7,50.0 746.1,50.0 748.5,50.0 751.0,50.0 753.4,50.0 755.8,50.0 758.2,50.0 760.6,50.0 763.1,50.0 765.5,50.0 767.9,50.0 770.3,50.0 772.7,50.0 775.2,50.0 777.6,50.0 780.0,50.0" />
<text x="30" y="416" font-size="13" fill="#dc2626">dqn_without_nlp</text>
</svg>