<svg xmlns="http://www.w3.org/2000/svg" width="840" height="420" viewBox="0 0 840 420">
<rect width="840" height="420" fill="white"/>
<text x="30" y="30" font-size="20" font-family="Arial, sans-serif">Daily Net Inflow / Outflow Proxy</text>
<line x1="40" y1="350" x2="800" y2="350" stroke="#d1d5db"/>
<line x1="40" y1="50" x2="40" y2="350" stroke="#d1d5db"/>
<line x1="40" y1="200" x2="800" y2="200" stroke="#6b7280" stroke-dasharray="4 4"/>
<rect x="40.0" y="200.0" width="1.8" height="2.1" fill="#dc2626" />
<rect x="42.4" y="200.0" width="1.8" height="8.4" fill="#dc2626" />
<rect x="44.8" y="200.0" width="1.8" height="5.5" fill="#dc2626" />
<rect x="47.2" y="200.0" width="1.8" height="8.5" fill="#dc2626" />
<rect x="49.6" y="199.8" width="1.8" height="0.2" fill="#16a34a" />
<rect x="52.0" y="192.6" width="1.8" height="7.4" fill="#16a34a" />
<rect x="54.4" y="195.5" width="1.8" height="4.5" fill="#16a34a" />
<rect x="56.8" y="195.8" width="1.8" height="4.2" fill="#16a34a" />
<rect x="59.2" y="200.0" width="1.8" height="6.1" fill="#dc2626" />
<rect x="61.6" y="195.0" width="1.8" height="5.0" fill="#16a34a" />
<rect x="64.1" y="192.5" width="1.8" height="7.5" fill="#16a34a" />
<rect x="66.5" y="200.0" width="1.8" height="3.0" fill="#dc2626" />
<rect x="68.9" y="200.0" width="1.8" height="6.6" fill="#dc2626" />
<rect x="71.3" y="200.0" width="1.8" height="0.8" fill="#dc2626" />
<rect x="73.7" y="199.0" width="1.8" height="1.0" fill="#16a34a" />
<rect x="76.1" y="199.9" width="1.8" height="0.1" fill="#16a34a" />
<rect x="78.5" y="200.0" width="1.8" height="2.6" fill="#dc2626" />
<rect x="80.9" y="200.0" width="1.8" height="6.4" fill="#dc2626" />
<rect x="83.3" y="195.7" width="1.8" height="4.3" fill="#16a34a" />
<rect x="85.7" y="200.0" width="1.8" height="4.6" fill="#dc2626" />
<rect x="88.1" y="197.1" width="1.8" height="2.9" fill="#16a34a" />
<rect x="90.5" y="192.2" width="1.8" height="7.8" fill="#16a34a" />
<rect x="92.9" y="200.0" width="1.8" height="1.8" fill="#dc2626" />
<rect x="95.3" y="190.7" width="1.8" height="9.3" fill="#16a34a" />
<rect x="97.7" y="200.0" width="1.8" height="11.1" fill="#dc2626" />
<rect x="100.1" y="194.4" width="1.8" height="5.6" fill="#16a34a" />
<rect x="102.5" y="200.0" width="1.8" height="4.2" fill="#dc2626" />
<rect x="104.9" y="200.0" width="1.8" height="2.3" fill="#dc2626" />
<rect x="107.3" y="200.0" width="1.8" height="0.4" fill="#dc2626" />
<rect x="109.7" y="200.0" width="1.8" height="8.7" fill="#dc2626" />
<rect x="112.2" y="189.4" width="1.8" height="10.6" fill="#16a34a" />
<rect x="114.6" y="190.8" width="1.8" height="9.2" fill="#16a34a" />
<rect x="117.0" y="200.0" width="1.8" height="9.0" fill="#dc2626" />
<rect x="119.4" y="200.0" width="1.8" height="6.8" fill="#dc2626" />
<rect x="121.8" y="199.9" width="1.8" height="0.1" fill="#16a34a" />
<rect x="124.2" y="194.9" width="1.8" height="5.1" fill="#16a34a" />
<rect x="126.6" y="187.4" width="1.8" height="12.6" fill="#16a34a" />
<rect x="129.0" y="200.0" width="1.8" height="45.1" fill="#dc2626" />
<rect x="131.4" y="196.4" width="1.8" height="3.6" fill="#16a34a" />
<rect x="133.8" y="184.8" width="1.8" height="15.2" fill="#16a34a" />
<rect x="136.2" y="178.8" width="1.8" height="21.2" fill="#16a34a" />
<rect x="138.6" y="103.0" width="1.8" height="97.0" fill="#16a34a" />
<rect x="141.0" y="170.5" width="1.8" height="29.5" fill="#16a34a" />
<rect x="143.4" y="200.0" width="1.8" height="35.5" fill="#dc2626" />
<rect x="145.8" y="198.9" width="1.8" height="1.1" fill="#16a34a" />
<rect x="148.2" y="193.3" width="1.8" height="6.7" fill="#16a34a" />
<rect x="150.6" y="200.0" width="1.8" height="26.2" fill="#dc2626" />
<rect x="153.0" y="185.8" width="1.8" height="14.2" fill="#16a34a" />
<rect x="155.4" y="185.3" width="1.8" height="14.7" fill="#16a34a" />
<rect x="157.8" y="124.7" width="1.8" height="75.3" fill="#16a34a" />
<rect x="160.3" y="200.0" width="1.8" height="95.4" fill="#dc2626" />
<rect x="162.7" y="200.0" width="1.8" height="51.5" fill="#dc2626" />
<rect x="165.1" y="180.3" width="1.8" height="19.7" fill="#16a34a" />
<rect x="167.5" y="200.0" width="1.8" height="0.9" fill="#dc2626" />
<rect x="169.9" y="157.4" width="1.8" height="42.6" fill="#16a34a" />
<rect x="172.3" y="200.0" width="1.8" height="9.0" fill="#dc2626" />
<rect x="174.7" y="200.0" width="1.8" height="11.6" fill="#dc2626" />
<rect x="177.1" y="200.0" width="1.8" height="22.7" fill="#dc2626" />
<rect x="179.5" y="175.2" width="1.8" height="24.8" fill="#16a34a" />
<rect x="181.9" y="197.5" width="1.8" height="2.5" fill="#16a34a" />
<rect x="184.3" y="200.0" width="1.8" height="11.4" fill="#dc2626" />
<rect x="186.7" y="200.0" width="1.8" height="4.9" fill="#dc2626" />
<rect x="189.1" y="200.0" width="1.8" height="21.6" fill="#dc2626" />
<rect x="191.5" y="200.0" width="1.8" height="7.9" fill="#dc2626" />
<rect x="193.9" y="182.2" width="1.8" height="17.8" fill="#16a34a" />
<rect x="196.3" y="200.0" width="1.8" height="19.0" fill="#dc2626" />
<rect x="198.7" y="199.4" width="1.8" height="0.6" fill="#16a34a" />
<rect x="201.1" y="199.2" width="1.8" height="0.8" fill="#16a34a" />
<rect x="203.5" y="196.7" width="1.8" height="3.3" fill="#16a34a" />
<rect x="205.9" y="200.0" width="1.8" height="4.8" fill="#dc2626" />
<rect x="208.4" y="200.0" width="1.8" height="5.7" fill="#dc2626" />
<rect x="210.8" y="194.5" width="1.8" height="5.5" fill="#16a34a" />
<rect x="213.2" y="184.2" width="1.8" height="15.8" fill="#16a34a" />
<rect x="215.6" y="200.0" width="1.8" height="11.8" fill="#dc2626" />
<rect x="218.0" y="192.0" width="1.8" height="8.0" fill="#16a34a" />
<rect x="220.4" y="200.0" width="1.8" height="13.3" fill="#dc2626" />
<rect x="222.8" y="200.0" width="1.8" height="8.1" fill="#dc2626" />
<rect x="225.2" y="200.0" width="1.8" height="4.1" fill="#dc2626" />
<rect x="227.6" y="199.5" width="1.8" height="0.5" fill="#16a34a" />
<rect x="230.0" y="189.8" width="1.8" height="10.2" fill="#16a34a" />
<rect x="232.4" y="181.1" width="1.8" height="18.9" fill="#16a34a" />
<rect x="234.8" y="200.0" width="1.8" height="1.9" fill="#dc2626" />
<rect x="237.2" y="200.0" width="1.8" height="1.8" fill="#dc2626" />
<rect x="239.6" y="200.0" width="1.8" height="10.6" fill="#dc2626" />
<rect x="242.0" y="200.0" width="1.8" height="9.4" fill="#dc2626" />
<rect x="244.4" y="200.0" width="1.8" height="12.3" fill="#dc2626" />
<rect x="246.8" y="199.7" width="1.8" height="0.3" fill="#16a34a" />
<rect x="249.2" y="200.0" width="1.8" height="2.7" fill="#dc2626" />
<rect x="251.6" y="192.6" width="1.8" height="7.4" fill="#16a34a" />
<rect x="254.1" y="186.2" width="1.8" height="13.8" fill="#16a34a" />
<rect x="256.5" y="193.8" width="1.8" height="6.2" fill="#16a34a" />
<rect x="258.9" y="145.7" width="1.8" height="54.3" fill="#16a34a" />
<rect x="261.3" y="200.0" width="1.8" height="33.7" fill="#dc2626" />
<rect x="263.7" y="200.0" width="1.8" height="22.9" fill="#dc2626" />
<rect x="266.1" y="193.5" width="1.8" height="6.5" fill="#16a34a" />
<rect x="268.5" y="200.0" width="1.8" height="6.9" fill="#dc2626" />
<rect x="270.9" y="200.0" width="1.8" height="23.5" fill="#dc2626" />
<rect x="273.3" y="200.0" width="1.8" height="7.2" fill="#dc2626" />
<rect x="275.7" y="173.5" width="1.8" height="26.5" fill="#16a34a" />
<rect x="278.1" y="186.3" width="1.8" height="13.7" fill="#16a34a" />
<rect x="280.5" y="200.0" width="1.8" height="5.1" fill="#dc2626" />
<rect x="282.9" y="197.7" width="1.8" height="2.3" fill="#16a34a" />
<rect x="285.3" y="190.0" width="1.8" height="10.0" fill="#16a34a" />
<rect x="287.7" y="200.0" width="1.8" height="4.9" fill="#dc2626" />
<rect x="290.1" y="200.0" width="1.8" height="20.9" fill="#dc2626" />
<rect x="292.5" y="163.7" width="1.8" height="36.3" fill="#16a34a" />
<rect x="294.9" y="200.0" width="1.8" height="12.8" fill="#dc2626" />
<rect x="297.3" y="200.0" width="1.8" height="19.6" fill="#dc2626" />
<rect x="299.7" y="200.0" width="1.8" height="12.8" fill="#dc2626" />
<rect x="302.2" y="200.0" width="1.8" height="12.6" fill="#dc2626" />
<rect x="304.6" y="200.0" width="1.8" height="0.2" fill="#dc2626" />
<rect x="307.0" y="193.6" width="1.8" height="6.4" fill="#16a34a" />
<rect x="309.4" y="170.0" width="1.8" height="30.0" fill="#16a34a" />
<rect x="311.8" y="141.6" width="1.8" height="58.4" fill="#16a34a" />
<rect x="314.2" y="172.0" width="1.8" height="28.0" fill="#16a34a" />
<rect x="316.6" y="162.1" width="1.8" height="37.9" fill="#16a34a" />
<rect x="319.0" y="113.4" width="1.8" height="86.6" fill="#16a34a" />
<rect x="321.4" y="200.0" width="1.8" height="123.5" fill="#dc2626" />
<rect x="323.8" y="143.8" width="1.8" height="56.2" fill="#16a34a" />
<rect x="326.2" y="200.0" width="1.8" height="10.9" fill="#dc2626" />
<rect x="328.6" y="200.0" width="1.8" height="5.7" fill="#dc2626" />
<rect x="331.0" y="194.1" width="1.8" height="5.9" fill="#16a34a" />
<rect x="333.4" y="181.5" width="1.8" height="18.5" fill="#16a34a" />
<rect x="335.8" y="200.0" width="1.8" height="26.9" fill="#dc2626" />
<rect x="338.2" y="194.6" width="1.8" height="5.4" fill="#16a34a" />
<rect x="340.6" y="200.0" width="1.8" height="22.5" fill="#dc2626" />
<rect x="343.0" y="200.0" width="1.8" height="18.9" fill="#dc2626" />
<rect x="345.4" y="193.8" width="1.8" height="6.2" fill="#16a34a" />
<rect x="347.8" y="182.9" width="1.8" height="17.1" fill="#16a34a" />
<rect x="350.3" y="200.0" width="1.8" height="3.3" fill="#dc2626" />
<rect x="352.7" y="200.0" width="1.8" height="16.8" fill="#dc2626" />
<rect x="355.1" y="200.0" width="1.8" height="0.4" fill="#dc2626" />
<rect x="357.5" y="200.0" width="1.8" height="8.5" fill="#dc2626" />
<rect x="359.9" y="193.2" width="1.8" height="6.8" fill="#16a34a" />
<rect x="362.3" y="194.9" width="1.8" height="5.1" fill="#16a34a" />
<rect x="364.7" y="200.0" width="1.8" height="11.7" fill="#dc2626" />
<rect x="367.1" y="198.4" width="1.8" height="1.6" fill="#16a34a" />
<rect x="369.5" y="200.0" width="1.8" height="1.9" fill="#dc2626" />
<rect x="371.9" y="200.0" width="1.8" height="2.2" fill="#dc2626" />
<rect x="374.3" y="192.9" width="1.8" height="7.1" fill="#16a34a" />
<rect x="376.7" y="200.0" width="1.8" height="16.2" fill="#dc2626" />
<rect x="379.1" y="200.0" width="1.8" height="11.5" fill="#dc2626" />
<rect x="381.5" y="200.0" width="1.8" height="2.0" fill="#dc2626" />
<rect x="383.9" y="186.6" width="1.8" height="13.4" fill="#16a34a" />
<rect x="386.3" y="182.1" width="1.8" height="17.9" fill="#16a34a" />
<rect x="388.7" y="184.2" width="1.8" height="15.8" fill="#16a34a" />
<rect x="391.1" y="200.0" width="1.8" height="6.4" fill="#dc2626" />
<rect x="393.5" y="200.0" width="1.8" height="22.5" fill="#dc2626" />
<rect x="395.9" y="200.0" width="1.8" height="11.1" fill="#dc2626" />
<rect x="398.4" y="200.0" width="1.8" height="19.3" fill="#dc2626" />
<rect x="400.8" y="181.7" width="1.8" height="18.3" fill="#16a34a" />
<rect x="403.2" y="200.0" width="1.8" height="42.0" fill="#dc2626" />
<rect x="405.6" y="184.6" width="1.8" height="15.4" fill="#16a34a" />
<rect x="408.0" y="172.7" width="1.8" height="27.3" fill="#16a34a" />
<rect x="410.4" y="186.7" width="1.8" height="13.3" fill="#16a34a" />
<rect x="412.8" y="177.0" width="1.8" height="23.0" fill="#16a34a" />
<rect x="415.2" y="200.0" width="1.8" height="9.0" fill="#dc2626" />
<rect x="417.6" y="196.1" width="1.8" height="3.9" fill="#16a34a" />
<rect x="420.0" y="178.3" width="1.8" height="21.7" fill="#16a34a" />
<rect x="422.4" y="135.9" width="1.8" height="64.1" fill="#16a34a" />
<rect x="424.8" y="181.8" width="1.8" height="18.2" fill="#16a34a" />
<rect x="427.2" y="182.8" width="1.8" height="17.2" fill="#16a34a" />
<rect x="429.6" y="200.0" width="1.8" height="34.6" fill="#dc2626" />
<rect x="432.0" y="195.3" width="1.8" height="4.7" fill="#16a34a" />
<rect x="434.4" y="178.2" width="1.8" height="21.8" fill="#16a34a" />
<rect x="436.8" y="200.0" width="1.8" height="24.7" fill="#dc2626" />
<rect x="439.2" y="200.0" width="1.8" height="32.9" fill="#dc2626" />
<rect x="441.6" y="188.6" width="1.8" height="11.4" fill="#16a34a" />
<rect x="444.1" y="156.7" width="1.8" height="43.3" fill="#16a34a" />
<rect x="446.5" y="200.0" width="1.8" height="3.2" fill="#dc2626" />
<rect x="448.9" y="195.8" width="1.8" height="4.2" fill="#16a34a" />
<rect x="451.3" y="179.9" width="1.8" height="20.1" fill="#16a34a" />
<rect x="453.7" y="200.0" width="1.8" height="41.0" fill="#dc2626" />
<rect x="456.1" y="200.0" width="1.8" height="15.1" fill="#dc2626" />
<rect x="458.5" y="200.0" width="1.8" height="13.9" fill="#dc2626" />
<rect x="460.9" y="182.5" width="1.8" height="17.5" fill="#16a34a" />
<rect x="463.3" y="181.0" width="1.8" height="19.0" fill="#16a34a" />
<rect x="465.7" y="163.8" width="1.8" height="36.2" fill="#16a34a" />
<rect x="468.1" y="173.3" width="1.8" height="26.7" fill="#16a34a" />
<rect x="470.5" y="140.8" width="1.8" height="59.2" fill="#16a34a" />
<rect x="472.9" y="151.4" width="1.8" height="48.6" fill="#16a34a" />
<rect x="475.3" y="200.0" width="1.8" height="3.7" fill="#dc2626" />
<rect x="477.7" y="200.0" width="1.8" height="29.9" fill="#dc2626" />
<rect x="480.1" y="200.0" width="1.8" height="0.7" fill="#dc2626" />
<rect x="482.5" y="200.0" width="1.8" height="15.6" fill="#dc2626" />
<rect x="484.9" y="200.0" width="1.8" height="30.6" fill="#dc2626" />
<rect x="487.3" y="200.0" width="1.8" height="14.9" fill="#dc2626" />
<rect x="489.7" y="200.0" width="1.8" height="3.9" fill="#dc2626" />
<rect x="492.2" y="200.0" width="1.8" height="20.3" fill="#dc2626" />
<rect x="494.6" y="91.4" width="1.8" height="108.6" fill="#16a34a" />
<rect x="497.0" y="200.0" width="1.8" height="20.2" fill="#dc2626" />
<rect x="499.4" y="200.0" width="1.8" height="120.4" fill="#dc2626" />
<rect x="501.8" y="200.0" width="1.8" height="4.3" fill="#dc2626" />
<rect x="504.2" y="200.0" width="1.8" height="83.8" fill="#dc2626" />
<rect x="506.6" y="200.0" width="1.8" height="45.2" fill="#dc2626" />
<rect x="509.0" y="119.9" width="1.8" height="80.1" fill="#16a34a" />
<rect x="511.4" y="179.8" width="1.8" height="20.2" fill="#16a34a" />
<rect x="513.8" y="183.1" width="1.8" height="16.9" fill="#16a34a" />
<rect x="516.2" y="185.4" width="1.8" height="14.6" fill="#16a34a" />
<rect x="518.6" y="200.0" width="1.8" height="81.3" fill="#dc2626" />
<rect x="521.0" y="200.0" width="1.8" height="3.5" fill="#dc2626" />
<rect x="523.4" y="200.0" width="1.8" height="35.9" fill="#dc2626" />
<rect x="525.8" y="166.7" width="1.8" height="33.3" fill="#16a34a" />
<rect x="528.2" y="200.0" width="1.8" height="25.2" fill="#dc2626" />
<rect x="530.6" y="189.6" width="1.8" height="10.4" fill="#16a34a" />
<rect x="533.0" y="168.8" width="1.8" height="31.2" fill="#16a34a" />
<rect x="535.4" y="200.0" width="1.8" height="37.4" fill="#dc2626" />
<rect x="537.8" y="200.0" width="1.8" height="31.5" fill="#dc2626" />
<rect x="540.3" y="200.0" width="1.8" height="38.5" fill="#dc2626" />
<rect x="542.7" y="188.2" width="1.8" height="11.8" fill="#16a34a" />
<rect x="545.1" y="200.0" width="1.8" height="7.3" fill="#dc2626" />
<rect x="547.5" y="200.0" width="1.8" height="0.7" fill="#dc2626" />
<rect x="549.9" y="200.0" width="1.8" height="14.1" fill="#dc2626" />
<rect x="552.3" y="200.0" width="1.8" height="17.8" fill="#dc2626" />
<rect x="554.7" y="200.0" width="1.8" height="4.9" fill="#dc2626" />
<rect x="557.1" y="200.0" width="1.8" height="4.8" fill="#dc2626" />
<rect x="559.5" y="200.0" width="1.8" height="21.5" fill="#dc2626" />
<rect x="561.9" y="194.2" width="1.8" height="5.8" fill="#16a34a" />
<rect x="564.3" y="200.0" width="1.8" height="13.8" fill="#dc2626" />
<rect x="566.7" y="197.5" width="1.8" height="2.5" fill="#16a34a" />
<rect x="569.1" y="200.0" width="1.8" height="16.4" fill="#dc2626" />
<rect x="571.5" y="191.2" width="1.8" height="8.8" fill="#16a34a" />
<rect x="573.9" y="181.9" width="1.8" height="18.1" fill="#16a34a" />
<rect x="576.3" y="200.0" width="1.8" height="20.4" fill="#dc2626" />
<rect x="578.7" y="191.2" width="1.8" height="8.8" fill="#16a34a" />
<rect x="581.1" y="200.0" width="1.8" height="3.1" fill="#dc2626" />
<rect x="583.5" y="196.6" width="1.8" height="3.4" fill="#16a34a" />
<rect x="585.9" y="187.5" width="1.8" height="12.5" fill="#16a34a" />
<rect x="588.4" y="200.0" width="1.8" height="14.6" fill="#dc2626" />
<rect x="590.8" y="191.4" width="1.8" height="8.6" fill="#16a34a" />
<rect x="593.2" y="200.0" width="1.8" height="13.7" fill="#dc2626" />
<rect x="595.6" y="200.0" width="1.8" height="3.2" fill="#dc2626" />
<rect x="598.0" y="200.0" width="1.8" height="18.5" fill="#dc2626" />
<rect x="600.4" y="200.0" width="1.8" height="17.1" fill="#dc2626" />
<rect x="602.8" y="186.0" width="1.8" height="14.0" fill="#16a34a" />
<rect x="605.2" y="200.0" width="1.8" height="7.8" fill="#dc2626" />
<rect x="607.6" y="200.0" width="1.8" height="17.4" fill="#dc2626" />
<rect x="610.0" y="200.0" width="1.8" height="4.4" fill="#dc2626" />
<rect x="612.4" y="200.0" width="1.8" height="3.6" fill="#dc2626" />
<rect x="614.8" y="175.2" width="1.8" height="24.8" fill="#16a34a" />
<rect x="617.2" y="183.3" width="1.8" height="16.7" fill="#16a34a" />
<rect x="619.6" y="200.0" width="1.8" height="51.2" fill="#dc2626" />
<rect x="622.0" y="200.0" width="1.8" height="27.8" fill="#dc2626" />
<rect x="624.4" y="200.0" width="1.8" height="14.7" fill="#dc2626" />
<rect x="626.8" y="200.0" width="1.8" height="14.9" fill="#dc2626" />
<rect x="629.2" y="166.5" width="1.8" height="33.5" fill="#16a34a" />
<rect x="631.6" y="164.1" width="1.8" height="35.9" fill="#16a34a" />
<rect x="634.1" y="176.5" width="1.8" height="23.5" fill="#16a34a" />
<rect x="636.5" y="200.0" width="1.8" height="36.7" fill="#dc2626" />
<rect x="638.9" y="200.0" width="1.8" height="25.5" fill="#dc2626" />
<rect x="641.3" y="179.0" width="1.8" height="21.0" fill="#16a34a" />
<rect x="643.7" y="200.0" width="1.8" height="31.4" fill="#dc2626" />
<rect x="646.1" y="167.6" width="1.8" height="32.4" fill="#16a34a" />
<rect x="648.5" y="189.9" width="1.8" height="10.1" fill="#16a34a" />
<rect x="650.9" y="200.0" width="1.8" height="131.1" fill="#dc2626" />
<rect x="653.3" y="167.6" width="1.8" height="32.4" fill="#16a34a" />
<rect x="655.7" y="200.0" width="1.8" height="34.8" fill="#dc2626" />
<rect x="658.1" y="129.8" width="1.8" height="70.2" fill="#16a34a" />
<rect x="660.5" y="200.0" width="1.8" height="51.4" fill="#dc2626" />
<rect x="662.9" y="197.4" width="1.8" height="2.6" fill="#16a34a" />
<rect x="665.3" y="160.9" width="1.8" height="39.1" fill="#16a34a" />
<rect x="667.7" y="137.1" width="1.8" height="62.9" fill="#16a34a" />
<rect x="670.1" y="200.0" width="1.8" height="47.3" fill="#dc2626" />
<rect x="672.5" y="200.0" width="1.8" height="47.5" fill="#dc2626" />
<rect x="674.9" y="170.2" width="1.8" height="29.8" fill="#16a34a" />
<rect x="677.3" y="200.0" width="1.8" height="27.2" fill="#dc2626" />
<rect x="679.7" y="162.8" width="1.8" height="37.2" fill="#16a34a" />
<rect x="682.2" y="200.0" width="1.8" height="3.6" fill="#dc2626" />
<rect x="684.6" y="200.0" width="1.8" height="26.4" fill="#dc2626" />
<rect x="687.0" y="172.3" width="1.8" height="27.7" fill="#16a34a" />
<rect x="689.4" y="200.0" width="1.8" height="56.8" fill="#dc2626" />
<rect x="691.8" y="200.0" width="1.8" height="8.5" fill="#dc2626" />
<rect x="694.2" y="200.0" width="1.8" height="15.1" fill="#dc2626" />
<rect x="696.6" y="144.5" width="1.8" height="55.5" fill="#16a34a" />
<rect x="699.0" y="200.0" width="1.8" height="31.4" fill="#dc2626" />
<rect x="701.4" y="200.0" width="1.8" height="7.3" fill="#dc2626" />
<rect x="703.8" y="194.1" width="1.8" height="5.9" fill="#16a34a" />
<rect x="706.2" y="188.3" width="1.8" height="11.7" fill="#16a34a" />
<rect x="708.6" y="200.0" width="1.8" height="10.6" fill="#dc2626" />
<rect x="711.0" y="200.0" width="1.8" height="48.7" fill="#dc2626" />
<rect x="713.4" y="200.0" width="1.8" height="51.9" fill="#dc2626" />
<rect x="715.8" y="200.0" width="1.8" height="34.3" fill="#dc2626" />
<rect x="718.2" y="200.0" width="1.8" height="1.2" fill="#dc2626" />
<rect x="720.6" y="200.0" width="1.8" height="21.6" fill="#dc2626" />
<rect x="723.0" y="162.6" width="1.8" height="37.4" fill="#16a34a" />
<rect x="725.4" y="109.7" width="1.8" height="90.3" fill="#16a34a" />
<rect x="727.8" y="200.0" width="1.8" height="52.5" fill="#dc2626" />
<rect x="730.3" y="200.0" width="1.8" height="31.2" fill="#dc2626" />
<rect x="732.7" y="200.0" width="1.8" height="38.9" fill="#dc2626" />
<rect x="735.1" y="123.4" width="1.8" height="76.6" fill="#16a34a" />
<rect x="737.5" y="200.0" width="1.8" height="55.3" fill="#dc2626" />
<rect x="739.9" y="176.4" width="1.8" height="23.6" fill="#16a34a" />
<rect x="742.3" y="199.1" width="1.8" height="0.9" fill="#16a34a" />
<rect x="744.7" y="200.0" width="1.8" height="91.0" fill="#dc2626" />
<rect x="747.1" y="200.0" width="1.8" height="52.4" fill="#dc2626" />
<rect x="749.5" y="166.2" width="1.8" height="33.8" fill="#16a34a" />
<rect x="751.9" y="200.0" width="1.8" height="19.5" fill="#dc2626" />
<rect x="754.3" y="200.0" width="1.8" height="11.3" fill="#dc2626" />
<rect x="756.7" y="167.1" width="1.8" height="32.9" fill="#16a34a" />
<rect x="759.1" y="200.0" width="1.8" height="2.6" fill="#dc2626" />
<rect x="761.5" y="200.0" width="1.8" height="30.1" fill="#dc2626" />
<rect x="763.9" y="199.7" width="1.8" height="0.3" fill="#16a34a" />
<rect x="766.3" y="187.6" width="1.8" height="12.4" fill="#16a34a" />
<rect x="768.7" y="180.1" width="1.8" height="19.9" fill="#16a34a" />
<rect x="771.1" y="200.0" width="1.8" height="15.6" fill="#dc2626" />
<rect x="773.5" y="154.6" width="1.8" height="45.4" fill="#16a34a" />
<rect x="775.9" y="187.0" width="1.8" height="13.0" fill="#16a34a" />
<rect x="778.4" y="182.8" width="1.8" height="17.2" fill="#16a34a" />
<rect x="780.8" y="200.0" width="1.8" height="27.4" fill="#dc2626" />
<rect x="783.2" y="200.0" width="1.8" height="7.1" fill="#dc2626" />
<rect x="785.6" y="200.0" width="1.8" height="24.5" fill="#dc2626" />
<rect x="788.0" y="177.6" width="1.8" height="22.4" fill="#16a34a" />
<rect x="790.4" y="187.4" width="1.8" height="12.6" fill="#16a34a" />
<rect x="792.8" y="200.0" width="1.8" height="17.0" fill="#dc2626" />
<rect x="795.2" y="182.6" width="1.8" height="17.4" fill="#16a34a" />
<rect x="797.6" y="60.0" width="1.8" height="140.0" fill="#16a34a" />
<text x="45" y="385" font-size="12" fill="#374151">green = estimated inflow, red = estimated outflow</text>
</svg>