<svg xmlns="http://www.w3.org/2000/svg" width="840" height="420" viewBox="0 0 840 420">
<rect width="840" height="420" fill="white"/>
<text x="30" y="30" font-size="20" font-family="Arial, sans-serif">Portfolio Curves</text>
<line x1="40" y1="350" x2="800" y2="350" stroke="#d1d5db"/>
<line x1="40" y1="50" x2="40" y2="350" stroke="#d1d5db"/>
<polyline fill="none" stroke="#2563eb" stroke-width="3" points="20.0,315.7 22.4,326.9 24.8,331.9 27.2,347.3 29.7,350.0 32.1,339.8 34.5,344.5 36.9,340.2 39.3,347.8 41.7,344.8 44.1,336.3 46.5,339.8 49.0,338.2 51.4,341.4 53.8,338.4 56.2,339.7 58.6,344.6 61.0,347.2 63.4,342.5 65.8,349.7 68.3,343.1 70.7,335.0 73.1,328.1 75.5,325.4 77.9,325.6 80.3,326.0 82.7,331.2 85.1,322.0 87.6,324.3 90.0,329.8 92.4,321.7 94.8,313.4 97.2,314.1 99.6,311.3 102.0,314.8 104.4,306.4 106.9,299.4 109.3,310.9 111.7,306.1 114.1,309.1 116.5,301.1 118.9,242.8 121.3,235.0 123.7,263.4 126.2,269.6 128.6,253.5 131.0,270.3 133.4,271.7 135.8,268.9 138.2,204.2 140.6,227.4 143.0,238.7 145.5,241.6 147.9,255.4 150.3,234.4 152.7,241.3 155.1,245.1 157.5,266.1 159.9,260.2 162.3,258.0 164.8,264.7 167.2,274.4 169.6,338.0 172.0,330.1 174.4,319.7 176.8,311.7 179.2,307.8 181.7,301.7 184.1,298.2 186.5,305.9 188.9,307.8 191.3,305.4 193.7,285.8 196.1,291.2 198.5,281.6 201.0,293.1 203.4,295.9 205.8,298.0 208.2,301.2 210.6,287.0 213.0,271.3 215.4,270.3 217.8,265.8 220.3,268.1 222.7,266.0 225.1,271.0 227.5,274.5 229.9,275.3 232.3,265.7 234.7,263.3 237.1,256.5 239.6,235.7 242.0,266.1 244.4,276.9 246.8,264.1 249.2,267.5 251.6,264.5 254.0,262.8 256.4,249.3 258.9,251.4 261.3,257.0 263.7,258.1 266.1,257.2 268.5,261.5 270.9,269.3 273.3,254.1 275.7,261.4 278.2,275.9 280.6,263.3 283.0,266.5 285.4,266.6 287.8,257.0 290.2,249.9 292.6,234.6 295.0,227.8 297.5,219.0 299.9,194.9 302.3,210.5 304.7,200.9 307.1,217.4 309.5,215.8 311.9,223.8 314.3,220.7 316.8,232.6 319.2,229.4 321.6,238.6 324.0,248.0 326.4,246.8 328.8,237.4 331.2,240.7 333.7,244.0 336.1,244.1 338.5,243.8 340.9,238.7 343.3,235.5 345.7,244.1 348.1,243.1 350.5,246.2 353.0,246.3 355.4,245.5 357.8,256.7 360.2,256.9 362.6,256.1 365.0,251.4 367.4,243.6 369.8,239.9 372.3,242.5 374.7,253.3 377.1,248.5 379.5,252.9 381.9,248.5 384.3,263.8 386.7,256.8 389.1,239.9 391.6,242.1 394.0,237.3 396.4,242.5 398.8,239.6 401.2,237.4 403.6,226.3 406.0,216.4 408.4,220.6 410.9,233.2 413.3,235.0 415.7,230.1 418.1,248.6 420.5,260.4 422.9,257.0 425.3,240.5 427.7,241.6 430.2,237.6 432.6,232.8 435.0,247.2 437.4,244.7 439.8,220.3 442.2,221.8 444.6,201.2 447.0,191.6 449.5,175.1 451.9,173.9 454.3,178.5 456.7,185.1 459.1,193.0 461.5,202.1 463.9,208.5 466.3,214.4 468.8,220.9 471.2,228.5 473.6,221.4 476.0,175.9 478.4,137.6 480.8,172.6 483.2,154.3 485.7,157.7 488.1,172.7 490.5,158.2 492.9,154.5 495.3,148.1 497.7,139.7 500.1,154.4 502.5,154.3 505.0,164.9 507.4,151.1 509.8,166.3 512.2,167.8 514.6,144.6 517.0,162.1 519.4,170.5 521.8,170.9 524.3,175.8 526.7,176.4 529.1,169.8 531.5,181.0 533.9,190.7 536.3,192.7 538.7,192.2 541.1,211.4 543.6,204.4 546.0,203.8 548.4,202.1 550.8,204.0 553.2,195.9 555.6,187.6 558.0,193.6 560.4,187.3 562.9,186.9 565.3,182.9 567.7,170.3 570.1,173.1 572.5,170.3 574.9,174.6 577.3,180.2 579.7,188.3 582.2,204.0 584.6,200.4 587.0,201.6 589.4,204.1 591.8,198.5 594.2,196.2 596.6,189.4 599.0,165.1 601.5,182.8 603.9,189.9 606.3,194.3 608.7,199.1 611.1,181.8 613.5,159.3 615.9,144.0 618.3,156.8 620.8,161.6 623.2,163.5 625.6,175.0 628.0,161.2 630.4,159.8 632.8,125.2 635.2,118.9 637.7,126.0 640.1,90.4 642.5,101.7 644.9,109.9 647.3,99.6 649.7,95.7 652.1,114.4 654.5,129.9 657.0,124.8 659.4,126.6 661.8,109.5 664.2,89.3 666.6,103.8 669.0,87.7 671.4,103.6 673.8,110.5 676.3,107.0 678.7,85.6 681.1,102.6 683.5,105.4 685.9,112.5 688.3,108.7 690.7,108.4 693.1,120.7 695.6,131.4 698.0,138.9 700.4,127.5 702.8,142.8 705.2,139.2 707.6,78.5 710.0,93.5 712.4,107.5 714.9,122.3 717.3,102.4 719.7,117.3 722.1,108.9 724.5,114.3 726.9,154.8 729.3,175.9 731.7,161.4 734.2,159.1 736.6,160.1 739.0,141.8 741.4,147.1 743.8,159.5 746.2,143.3 748.6,145.3 751.0,139.8 753.5,147.1 755.9,127.1 758.3,119.1 760.7,109.0 763.1,114.1 765.5,115.1 767.9,125.6 770.3,115.6 772.8,112.2 775.2,124.1 777.6,124.5 780.0,50.0" />
<text x="30" y="380" font-size="13" fill="#2563eb">buy_and_hold</text>
<polyline fill="none" stroke="#16a34a" stroke-width="3" points="20.0,315.7 22.4,315.7 24.8,315.7 27.3,315.7 29.7,315.7 32.1,315.7 34.5,315.7 36.9,315.7 39.4,315.7 41.8,315.7 44.2,315.7 46.6,315.7 49.0,315.7 51.5,315.7 53.9,315.7 56.3,315.7 58.7,315.7 61.1,315.7 63.6,315.7 66.0,315.7 68.4,315.7 70.8,315.7 73.2,315.7 75.7,315.7 78.1,315.7 80.5,315.7 82.9,315.7 85.4,315.7 87.8,315.7 90.2,315.7 92.6,315.7 95.0,315.7 97.5,315.7 99.9,315.7 102.3,315.7 104.7,315.7 107.1,315.7 109.6,315.7 112.0,315.7 114.4,315.7 116.8,315.7 119.2,315.7 121.7,315.7 124.1,315.7 126.5,315.7 128.9,315.7 131.3,315.7 133.8,315.7 136.2,315.7 138.6,315.7 141.0,315.7 143.4,315.7 145.9,315.7 148.3,315.7 150.7,315.7 153.1,315.7 155.5,315.7 158.0,315.7 160.4,315.7 162.8,315.7 165.2,315.7 167.6,315.7 170.1,315.7 172.5,315.7 174.9,315.7 177.3,315.7 179.7,315.7 182.2,315.7 184.6,315.7 187.0,315.7 189.4,315.7 191.8,315.7 194.3,315.7 196.7,315.7 199.1,315.7 201.5,315.7 203.9,315.7 206.4,315.7 208.8,315.7 211.2,315.7 213.6,315.7 216.1,315.7 218.5,315.7 220.9,315.7 223.3,315.7 225.7,315.7 228.2,315.7 230.6,315.7 233.0,315.7 235.4,315.7 237.8,315.7 240.3,315.7 242.7,315.7 245.1,315.7 247.5,315.7 249.9,315.7 252.4,315.7 254.8,315.7 257.2,315.7 259.6,315.7 262.0,315.7 264.5,315.7 266.9,315.7 269.3,315.7 271.7,315.7 274.1,315.7 276.6,315.7 279.0,315.7 281.4,315.7 283.8,315.7 286.2,315.7 288.7,315.7 291.1,315.7 293.5,315.7 295.9,315.7 298.3,315.7 300.8,315.7 303.2,315.7 305.6,315.7 308.0,315.7 310.4,315.7 312.9,315.7 315.3,315.7 317.7,315.7 320.1,315.7 322.5,315.7 325.0,315.7 327.4,315.7 329.8,315.7 332.2,315.7 334.6,315.7 337.1,315.7 339.5,315.7 341.9,315.7 344.3,315.7 346.8,315.7 349.2,315.7 351.6,315.7 354.0,315.7 356.4,315.7 358.9,315.7 361.3,315.7 363.7,315.7 366.1,315.7 368.5,315.7 371.0,315.7 373.4,315.7 375.8,315.7 378.2,315.7 380.6,315.7 383.1,315.7 385.5,315.7 387.9,315.7 390.3,315.7 392.7,315.7 395.2,315.7 397.6,315.7 400.0,315.7 402.4,315.7 404.8,315.7 407.3,315.7 409.7,315.7 412.1,315.7 414.5,315.7 416.9,315.7 419.4,315.7 421.8,315.7 424.2,315.7 426.6,315.7 429.0,315.7 431.5,315.7 433.9,315.7 436.3,315.7 438.7,315.7 441.1,315.7 443.6,315.7 446.0,315.7 448.4,315.7 450.8,315.7 453.2,315.7 455.7,315.7 458.1,315.7 460.5,315.7 462.9,315.7 465.4,315.7 467.8,315.7 470.2,315.7 472.6,315.7 475.0,315.7 477.5,315.7 479.9,315.7 482.3,315.7 484.7,315.7 487.1,315.7 489.6,315.7 492.0,315.7 494.4,315.7 496.8,315.7 499.2,315.7 501.7,315.7 504.1,315.7 506.5,315.7 508.9,315.7 511.3,315.7 513.8,315.7 516.2,315.7 518.6,315.7 521.0,315.7 523.4,315.7 525.9,315.7 528.3,315.7 530.7,315.7 533.1,315.7 535.5,315.7 538.0,315.7 540.4,315.7 542.8,315.7 545.2,315.7 547.6,315.7 550.1,315.7 552.5,315.7 554.9,315.7 557.3,315.7 559.7,315.7 562.2,315.7 564.6,315.7 567.0,315.7 569.4,315.7 571.8,315.7 574.3,315.7 576.7,315.7 579.1,315.7 581.5,315.7 583.9,315.7 586.4,315.7 588.8,315.7 591.2,315.7 593.6,315.7 596.1,315.7 598.5,315.7 600.9,315.7 603.3,315.7 605.7,315.7 608.2,315.7 610.6,315.7 613.0,315.7 615.4,315.7 617.8,315.7 620.3,315.7 622.7,315.7 625.1,315.7 627.5,315.7 629.9,315.7 632.4,315.7 634.8,315.7 637.2,315.7 639.6,315.7 642.0,315.7 644.5,315.7 646.9,315.7 649.3,315.7 651.7,315.7 654.1,315.7 656.6,315.7 659.0,315.7 661.4,315.7 663.8,315.7 666.2,315.7 668.7,315.7 671.1,315.7 673.5,315.7 675.9,315.7 678.3,315.7 680.8,315.7 683.2,315.7 685.6,315.7 688.0,315.7 690.4,315.7 692.9,315.7 695.3,315.7 697.7,315.7 700.1,315.7 702.5,315.7 705.0,315.7 707.4,315.7 709.8,315.7 712.2,315.7 714.6,315.7 717.1,315.7 719.5,315.7 721.9,315.7 724.3,315.7 726.8,315.7 729.2,315.7 731.6,315.7 734.0,315.7 736.4,315.7 738.9,315.7 741.3,315.7 743.7,315.7 746.1,315.7 748.5,315.7 751.0,315.7 753.4,315.7 755.8,315.7 758.2,315.7 760.6,315.7 763.1,315.7 765.5,315.7 767.9,315.7 770.3,315.7 772.7,315.7 775.2,315.7 777.6,315.7 780.0,315.7" />
<text x="30" y="398" font-size="13" fill="#16a34a">dqn_with_nlp</text>
<polyline fill="none" stroke="#dc2626" stroke-width="3" points="20.0,316.0 22.4,327.4 24.8,327.7 27.3,343.3 29.7,346.1 32.1,335.8 34.5,340.6 36.9,336.1 39.4,343.8 41.8,340.8 44.2,332.2 46.6,335.8 49.0,334.2 51.5,337.4 53.9,334.3 56.3,335.6 58.7,340.6 61.1,343.3 63.6,338.5 66.0,345.8 68.4,339.1 70.8,330.9 73.2,323.9 75.7,321.1 78.1,321.3 80.5,321.8 82.9,327.0 85.4,317.6 87.8,320.0 90.2,325.5 92.6,317.4 95.0,309.0 97.5,309.7 99.9,306.8 102.3,310.4 104.7,301.8 107.1,294.7 109.6,306.4 112.0,301.5 114.4,304.6 116.8,296.4 119.2,237.2 121.7,229.3 124.1,258.2 126.5,264.4 128.9,248.0 131.3,265.5 133.8,265.9 136.2,263.1 138.6,197.2 141.0,221.2 143.4,221.5 145.9,224.9 148.3,225.3 150.7,202.4 153.1,210.2 155.5,210.6 158.0,234.2 160.4,234.5 162.8,232.2 165.2,239.3 167.6,249.8 170.1,318.3 172.5,309.8 174.9,298.6 177.3,290.0 179.7,285.8 182.2,279.2 184.6,275.5 187.0,283.7 189.4,285.7 191.8,283.2 194.3,262.0 196.7,267.9 199.1,257.5 201.5,270.0 203.9,273.0 206.4,275.2 208.8,278.7 211.2,263.4 213.6,246.5 216.1,245.4 218.5,240.5 220.9,243.0 223.3,240.8 225.7,246.2 228.2,249.9 230.6,250.7 233.0,240.4 235.4,237.8 237.8,230.6 240.3,208.1 242.7,240.8 245.1,252.5 247.5,238.7 249.9,242.4 252.4,239.1 254.8,237.3 257.2,222.8 259.6,225.1 262.0,231.1 264.5,232.2 266.9,231.3 269.3,235.9 271.7,244.3 274.1,227.9 276.6,235.8 279.0,251.4 281.4,237.9 283.8,241.3 286.2,241.4 288.7,231.1 291.1,223.4 293.5,206.9 295.9,199.6 298.3,190.1 300.8,164.1 303.2,180.9 305.6,170.7 308.0,188.4 310.4,186.6 312.9,195.3 315.3,191.9 317.7,204.8 320.1,201.3 322.5,211.2 325.0,221.4 327.4,220.1 329.8,210.0 332.2,213.5 334.6,217.1 337.1,217.2 339.5,216.8 341.9,211.3 344.3,207.9 346.8,217.2 349.2,216.1 351.6,219.4 354.0,219.5 356.4,218.6 358.9,230.7 361.3,230.9 363.7,230.1 366.1,225.0 368.5,216.6 371.0,212.6 373.4,215.5 375.8,227.1 378.2,221.9 380.6,226.7 383.1,221.9 385.5,238.4 387.9,230.8 390.3,212.6 392.7,215.0 395.2,209.9 397.6,215.5 400.0,212.3 402.4,210.0 404.8,198.0 407.3,187.4 409.7,191.8 412.1,205.4 414.5,207.3 416.9,202.1 419.4,222.0 421.8,234.7 424.2,231.0 426.6,213.3 429.0,214.4 431.5,210.2 433.9,205.0 436.3,220.5 438.7,217.8 441.1,191.5 443.6,193.2 446.0,171.0 448.4,160.6 450.8,142.8 453.2,141.5 455.7,146.5 458.1,153.6 460.5,162.1 462.9,171.9 465.4,178.8 467.8,185.1 470.2,192.1 472.6,200.4 475.0,192.8 477.5,143.7 479.9,102.4 482.3,140.1 484.7,120.8 487.1,121.3 489.6,138.0 492.0,138.5 494.4,135.0 496.8,135.5 499.2,127.4 501.7,127.9 504.1,128.2 506.5,128.7 508.9,114.3 511.3,114.8 513.8,116.9 516.2,117.4 518.6,136.3 521.0,136.8 523.4,137.7 525.9,138.1 528.3,139.2 530.7,139.7 533.1,151.8 535.5,162.2 538.0,164.3 540.4,163.7 542.8,184.3 545.2,176.8 547.6,176.1 550.1,174.3 552.5,176.3 554.9,167.7 557.3,158.8 559.7,165.2 562.2,158.5 564.6,158.1 567.0,153.7 569.4,140.3 571.8,143.2 574.3,140.3 576.7,144.8 579.1,150.8 581.5,159.5 583.9,176.3 586.4,172.4 588.8,173.8 591.2,176.4 593.6,170.5 596.1,168.0 598.5,160.7 600.9,134.7 603.3,153.6 605.7,161.2 608.2,165.9 610.6,171.1 613.0,152.6 615.4,128.4 617.8,112.0 620.3,125.8 622.7,131.0 625.1,132.9 627.5,145.2 629.9,130.5 632.4,129.0 634.8,92.0 637.2,85.1 639.6,93.3 642.0,93.8 644.5,105.5 646.9,106.0 649.3,96.1 651.7,96.6 654.1,115.8 656.6,116.3 659.0,111.5 661.4,112.0 663.8,94.9 666.2,95.4 668.7,110.2 671.1,110.7 673.5,126.3 675.9,126.8 678.3,123.8 680.8,124.3 683.2,140.4 685.6,140.9 688.0,147.9 690.4,148.3 692.9,148.5 695.3,148.9 697.7,159.4 700.1,159.8 702.5,149.4 705.0,149.9 707.4,146.3 709.8,86.6 712.2,101.4 714.6,115.6 717.1,116.1 719.5,96.4 721.9,96.9 724.3,88.2 726.8,93.8 729.2,136.4 731.6,136.9 734.0,121.0 736.4,118.4 738.9,119.6 741.3,99.5 743.7,105.3 746.1,118.9 748.5,101.2 751.0,103.4 753.4,97.4 755.8,105.3 758.2,83.5 760.6,74.8 763.1,63.7 765.5,69.3 767.9,70.4 770.3,81.9 772.7,70.9 775.2,67.2 777.6,80.2 780.0,80.7" />
<text x="30" y="416" font-size="13" fill="#dc2626">dqn_without_nlp</text>
</svg>