<svg xmlns="http://www.w3.org/2000/svg" width="840" height="420" viewBox="0 0 840 420">
<rect width="840" height="420" fill="white"/>
<text x="30" y="30" font-size="20" font-family="Arial, sans-serif">Strategy Metric Comparison</text>
<line x1="40" y1="350" x2="800" y2="350" stroke="#d1d5db"/>
<line x1="40" y1="50" x2="40" y2="350" stroke="#d1d5db"/>
<line x1="40" y1="200" x2="800" y2="200" stroke="#6b7280" stroke-dasharray="4 4"/>
<rect x="60.0" y="124.8" width="42.0" height="75.2" fill="#2563eb" />
<rect x="112.5" y="73.3" width="42.0" height="126.7" fill="#16a34a" />
<rect x="165.0" y="71.0" width="42.0" height="129.0" fill="#dc2626" />
<rect x="217.5" y="200.0" width="42.0" height="21.5" fill="#9333ea" />
<text x="60.0" y="365" font-size="11" transform="rotate(15 60.0,365)">buy_and_hold</text>
<rect x="293.3" y="127.0" width="42.0" height="73.0" fill="#2563eb" />
<rect x="345.8" y="87.2" width="42.0" height="112.8" fill="#16a34a" />
<rect x="398.3" y="70.0" width="42.0" height="130.0" fill="#dc2626" />
<rect x="450.8" y="200.0" width="42.0" height="19.1" fill="#9333ea" />
<text x="293.3" y="365" font-size="11" transform="rotate(15 293.3,365)">dqn_without_nlp</text>
<rect x="526.7" y="200.0" width="42.0" height="0.0" fill="#2563eb" />
<rect x="579.2" y="200.0" width="42.0" height="0.0" fill="#16a34a" />
<rect x="631.7" y="200.0" width="42.0" height="0.0" fill="#dc2626" />
<rect x="684.2" y="200.0" width="42.0" height="0.0" fill="#9333ea" />
<text x="526.7" y="365" font-size="11" transform="rotate(15 526.7,365)">dqn_with_nlp</text>
<text x="40" y="385" font-size="12" fill="#2563eb">sharpe_ratio</text>
<text x="180" y="385" font-size="12" fill="#16a34a">sortino_ratio</text>
<text x="320" y="385" font-size="12" fill="#dc2626">calmar_ratio</text>
<text x="460" y="385" font-size="12" fill="#9333ea">max_drawdown</text>
</svg>