<svg xmlns="http://www.w3.org/2000/svg" width="840" height="420" viewBox="0 0 840 420">
<rect width="840" height="420" fill="white"/>
<text x="30" y="30" font-size="20" font-family="Arial, sans-serif">Daily Sentiment Trend</text>
<line x1="40" y1="350" x2="800" y2="350" stroke="#d1d5db"/>
<line x1="40" y1="50" x2="40" y2="350" stroke="#d1d5db"/>
<polyline fill="none" stroke="#2563eb" stroke-width="3" points="20.0,50.0 22.3,350.0 24.6,350.0 26.9,350.0 29.2,350.0 31.6,200.0 33.9,350.0 36.2,200.0 38.5,350.0 40.8,50.0 43.1,50.0 45.4,350.0 47.7,50.0 50.0,350.0 52.3,350.0 54.7,350.0 57.0,350.0 59.3,350.0 61.6,50.0 63.9,350.0 66.2,50.0 68.5,50.0 70.8,50.0 73.1,50.0 75.4,350.0 77.8,50.0 80.1,350.0 82.4,50.0 84.7,350.0 87.0,350.0 89.3,50.0 91.6,50.0 93.9,350.0 96.2,50.0 98.5,50.0 100.9,50.0 103.2,200.0 105.5,350.0 107.8,50.0 110.1,50.0 112.4,50.0 114.7,50.0 117.0,50.0 119.3,350.0 121.6,200.0 124.0,200.0 126.3,350.0 128.6,350.0 130.9,200.0 133.2,200.0 135.5,350.0 137.8,350.0 140.1,50.0 142.4,350.0 144.7,50.0 147.1,50.0 149.4,50.0 151.7,350.0 154.0,50.0 156.3,50.0 158.6,350.0 160.9,350.0 163.2,350.0 165.5,50.0 167.8,50.0 170.2,350.0 172.5,50.0 174.8,50.0 177.1,50.0 179.4,350.0 181.7,50.0 184.0,50.0 186.3,50.0 188.6,350.0 190.9,50.0 193.3,200.0 195.6,350.0 197.9,350.0 200.2,200.0 202.5,50.0 204.8,50.0 207.1,350.0 209.4,200.0 211.7,350.0 214.0,200.0 216.4,350.0 218.7,350.0 221.0,200.0 223.3,200.0 225.6,50.0 227.9,50.0 230.2,50.0 232.5,200.0 234.8,350.0 237.1,50.0 239.5,350.0 241.8,50.0 244.1,200.0 246.4,50.0 248.7,50.0 251.0,350.0 253.3,50.0 255.6,50.0 257.9,350.0 260.2,350.0 262.6,50.0 264.9,350.0 267.2,200.0 269.5,50.0 271.8,350.0 274.1,50.0 276.4,50.0 278.7,50.0 281.0,50.0 283.3,350.0 285.7,50.0 288.0,50.0 290.3,350.0 292.6,50.0 294.9,350.0 297.2,50.0 299.5,350.0 301.8,50.0 304.1,350.0 306.4,50.0 308.8,350.0 311.1,350.0 313.4,50.0 315.7,50.0 318.0,350.0 320.3,350.0 322.6,50.0 324.9,350.0 327.2,50.0 329.5,200.0 331.9,350.0 334.2,200.0 336.5,200.0 338.8,350.0 341.1,50.0 343.4,350.0 345.7,350.0 348.0,350.0 350.3,50.0 352.6,50.0 355.0,50.0 357.3,350.0 359.6,350.0 361.9,200.0 364.2,350.0 366.5,50.0 368.8,350.0 371.1,50.0 373.4,50.0 375.7,50.0 378.1,50.0 380.4,350.0 382.7,350.0 385.0,50.0 387.3,200.0 389.6,50.0 391.9,350.0 394.2,350.0 396.5,200.0 398.8,200.0 401.2,50.0 403.5,350.0 405.8,350.0 408.1,50.0 410.4,50.0 412.7,50.0 415.0,200.0 417.3,50.0 419.6,250.0 421.9,200.0 424.3,200.0 426.6,50.0 428.9,200.0 431.2,200.0 433.5,200.0 435.8,50.0 438.1,50.0 440.4,350.0 442.7,350.0 445.0,350.0 447.4,350.0 449.7,350.0 452.0,350.0 454.3,50.0 456.6,200.0 458.9,50.0 461.2,50.0 463.5,350.0 465.8,50.0 468.1,350.0 470.5,350.0 472.8,50.0 475.1,50.0 477.4,50.0 479.7,50.0 482.0,200.0 484.3,300.0 486.6,200.0 488.9,200.0 491.2,200.0 493.6,162.5 495.9,200.0 498.2,200.0 500.5,200.0 502.8,200.0 505.1,200.0 507.4,200.0 509.7,200.0 512.0,200.0 514.3,200.0 516.7,200.0 519.0,200.0 521.3,200.0 523.6,200.0 525.9,200.0 528.2,200.0 530.5,200.0 532.8,200.0 535.1,200.0 537.4,200.0 539.8,50.0 542.1,50.0 544.4,50.0 546.7,50.0 549.0,350.0 551.3,50.0 553.6,350.0 555.9,200.0 558.2,200.0 560.5,200.0 562.9,200.0 565.2,200.0 567.5,200.0 569.8,50.0 572.1,350.0 574.4,200.0 576.7,200.0 579.0,200.0 581.3,200.0 583.6,350.0 586.0,350.0 588.3,250.0 590.6,50.0 592.9,183.3 595.2,350.0 597.5,350.0 599.8,200.0 602.1,350.0 604.4,200.0 606.7,87.5 609.1,135.7 611.4,162.5 613.7,140.0 616.0,125.0 618.3,143.8 620.6,100.0 622.9,125.0 625.2,200.0 627.5,125.0 629.8,125.0 632.2,125.0 634.5,350.0 636.8,50.0 639.1,125.0 641.4,200.0 643.7,200.0 646.0,350.0 648.3,200.0 650.6,200.0 652.9,200.0 655.3,350.0 657.6,350.0 659.9,170.0 662.2,200.0 664.5,200.0 666.8,350.0 669.1,170.0 671.4,275.0 673.7,200.0 676.0,112.5 678.4,200.0 680.7,125.0 683.0,150.0 685.3,200.0 687.6,125.0 689.9,200.0 692.2,125.0 694.5,275.0 696.8,200.0 699.1,197.3 701.5,203.8 703.8,244.4 706.1,183.7 708.4,275.0 710.7,228.8 713.0,191.2 715.3,170.0 717.6,212.9 719.9,176.1 722.2,200.0 724.6,200.0 726.9,202.0 729.2,221.0 731.5,175.0 733.8,207.5 736.1,222.5 738.4,200.0 740.7,50.0 743.0,167.9 745.3,202.1 747.7,152.2 750.0,150.8 752.3,135.5 754.6,153.4 756.9,115.7 759.2,128.2 761.5,151.4 763.8,179.8 766.1,141.5 768.4,177.2 770.8,133.6 773.1,153.5 775.4,164.5 777.7,165.9 780.0,168.1" />
</svg>