<svg xmlns="http://www.w3.org/2000/svg" width="840" height="420" viewBox="0 0 840 420">
<rect width="840" height="420" fill="white"/>
<text x="30" y="30" font-size="20" font-family="Arial, sans-serif">Drawdown Curves</text>
<line x1="40" y1="350" x2="800" y2="350" stroke="#d1d5db"/>
<line x1="40" y1="50" x2="40" y2="350" stroke="#d1d5db"/>
<polyline fill="none" stroke="#2563eb" stroke-width="3" points="20.0,50.0 22.4,57.8 24.8,69.5 27.2,78.1 29.7,79.7 32.1,74.2 34.5,81.2 36.9,82.0 39.3,102.3 41.7,96.9 44.1,85.1 46.5,89.0 49.0,87.5 51.4,107.0 53.8,89.8 56.2,50.0 58.6,76.6 61.0,50.0 63.4,50.0 65.8,59.3 68.3,82.7 70.7,78.8 73.1,50.0 75.5,50.0 77.9,63.9 80.3,50.0 82.7,50.0 85.1,61.5 87.6,70.9 90.0,82.5 92.4,73.1 94.8,82.5 97.2,75.2 99.6,60.8 102.0,70.9 104.4,59.4 106.9,61.5 109.3,65.9 111.7,63.0 114.1,73.8 116.5,81.7 118.9,64.4 121.3,81.7 123.7,85.3 126.2,88.9 128.6,88.2 131.0,94.7 133.4,81.0 135.8,79.6 138.2,81.7 140.6,86.1 143.0,88.9 145.5,94.0 147.9,107.0 150.3,106.2 152.7,105.5 155.1,107.7 157.5,111.3 159.9,116.3 162.3,112.0 164.8,117.1 167.2,109.9 169.6,148.8 172.0,134.4 174.4,115.6 176.8,105.5 179.2,114.2 181.7,116.3 184.1,120.7 186.5,117.1 188.9,105.5 191.3,97.6 193.7,107.0 196.1,107.0 198.5,114.9 201.0,114.2 203.4,116.3 205.8,132.2 208.2,133.7 210.6,133.7 213.0,132.2 215.4,127.2 217.8,128.6 220.3,135.8 222.7,130.8 225.1,130.0 227.5,127.9 229.9,135.1 232.3,136.5 234.7,134.4 237.1,135.8 239.6,137.3 242.0,143.8 244.4,146.6 246.8,146.6 249.2,143.8 251.6,143.0 254.0,141.6 256.4,145.9 258.9,150.2 261.3,147.4 263.7,145.9 266.1,148.8 268.5,147.4 270.9,148.8 273.3,151.0 275.7,155.3 278.2,160.3 280.6,151.0 283.0,153.8 285.4,160.3 287.8,169.0 290.2,171.2 292.6,171.2 295.0,166.8 297.5,161.1 299.9,163.9 302.3,163.9 304.7,161.8 307.1,166.8 309.5,156.0 311.9,158.9 314.3,160.3 316.8,154.6 319.2,151.7 321.6,153.1 324.0,137.3 326.4,137.3 328.8,144.5 331.2,148.8 333.7,151.7 336.1,151.7 338.5,151.0 340.9,148.8 343.3,141.6 345.7,140.1 348.1,133.7 350.5,135.8 353.0,135.1 355.4,133.7 357.8,141.6 360.2,160.3 362.6,163.9 365.0,162.5 367.4,159.6 369.8,160.3 372.3,158.2 374.7,159.6 377.1,157.5 379.5,158.2 381.9,158.9 384.3,161.1 386.7,153.8 389.1,156.0 391.6,153.8 394.0,152.4 396.4,151.7 398.8,151.7 401.2,108.4 403.6,120.7 406.0,138.7 408.4,136.5 410.9,135.1 413.3,133.7 415.7,140.1 418.1,150.2 420.5,153.8 422.9,149.5 425.3,137.3 427.7,130.0 430.2,130.0 432.6,132.2 435.0,124.3 437.4,122.1 439.8,117.1 442.2,116.3 444.6,136.5 447.0,121.4 449.5,120.0 451.9,137.3 454.3,131.5 456.7,134.4 459.1,134.4 461.5,133.7 463.9,127.9 466.3,135.1 468.8,138.0 471.2,151.0 473.6,153.8 476.0,156.7 478.4,163.2 480.8,169.0 483.2,167.5 485.7,163.2 488.1,164.7 490.5,164.7 492.9,166.1 495.3,169.0 497.7,172.6 500.1,169.7 502.5,172.6 505.0,172.6 507.4,170.4 509.8,175.5 512.2,176.2 514.6,179.1 517.0,179.1 519.4,173.3 521.8,171.9 524.3,173.3 526.7,171.9 529.1,172.6 531.5,173.3 533.9,182.7 536.3,187.7 538.7,177.6 541.1,187.7 543.6,189.2 546.0,189.2 548.4,200.0 550.8,230.3 553.2,236.8 555.6,249.8 558.0,249.8 560.4,263.5 562.9,266.3 565.3,267.8 567.7,270.7 570.1,280.8 572.5,246.2 574.9,259.1 577.3,262.7 579.7,273.6 582.2,266.3 584.6,267.1 587.0,273.6 589.4,271.4 591.8,269.2 594.2,279.3 596.6,281.5 599.0,279.3 601.5,280.8 603.9,282.9 606.3,291.6 608.7,289.4 611.1,282.2 613.5,276.4 615.9,283.7 618.3,271.4 620.8,267.1 623.2,272.8 625.6,276.4 628.0,286.5 630.4,275.0 632.8,283.7 635.2,283.7 637.7,279.3 640.1,263.5 642.5,267.8 644.9,267.8 647.3,277.2 649.7,282.2 652.1,274.3 654.5,254.8 657.0,272.8 659.4,287.3 661.8,285.8 664.2,271.4 666.6,272.8 669.0,277.9 671.4,267.1 673.8,272.8 676.3,272.1 678.7,270.0 681.1,266.3 683.5,270.0 685.9,264.2 688.3,277.2 690.7,275.7 693.1,282.2 695.6,288.0 698.0,291.6 700.4,286.5 702.8,284.4 705.2,289.4 707.6,288.0 710.0,288.0 712.4,289.4 714.9,288.7 717.3,288.7 719.7,285.8 722.1,290.9 724.5,300.2 726.9,311.8 729.3,334.9 731.7,329.8 734.2,327.6 736.6,333.4 739.0,332.0 741.4,335.6 743.8,337.0 746.2,333.4 748.6,342.1 751.0,349.3 753.5,350.0 755.9,339.9 758.3,345.7 760.7,344.2 763.1,342.8 765.5,334.9 767.9,338.5 770.3,339.2 772.8,339.2 775.2,341.3 777.6,343.5 780.0,345.0" />
<text x="30" y="380" font-size="13" fill="#2563eb">buy_and_hold</text>
<polyline fill="none" stroke="#16a34a" stroke-width="3" points="20.0,50.0 22.4,50.0 24.8,50.0 27.3,50.0 29.7,50.0 32.1,50.0 34.5,50.0 36.9,50.0 39.4,50.0 41.8,50.0 44.2,50.0 46.6,50.0 49.0,50.0 51.5,50.0 53.9,50.0 56.3,50.0 58.7,50.0 61.1,50.0 63.6,50.0 66.0,50.0 68.4,50.0 70.8,50.0 73.2,50.0 75.7,50.0 78.1,50.0 80.5,50.0 82.9,50.0 85.4,50.0 87.8,50.0 90.2,50.0 92.6,50.0 95.0,50.0 97.5,50.0 99.9,50.0 102.3,50.0 104.7,50.0 107.1,50.0 109.6,50.0 112.0,50.0 114.4,50.0 116.8,50.0 119.2,50.0 121.7,50.0 124.1,50.0 126.5,50.0 128.9,50.0 131.3,50.0 133.8,50.0 136.2,50.0 138.6,50.0 141.0,50.0 143.4,50.0 145.9,50.0 148.3,50.0 150.7,50.0 153.1,50.0 155.5,50.0 158.0,50.0 160.4,50.0 162.8,50.0 165.2,50.0 167.6,50.0 170.1,50.0 172.5,50.0 174.9,50.0 177.3,50.0 179.7,50.0 182.2,50.0 184.6,50.0 187.0,50.0 189.4,50.0 191.8,50.0 194.3,50.0 196.7,50.0 199.1,50.0 201.5,50.0 203.9,50.0 206.4,50.0 208.8,50.0 211.2,50.0 213.6,50.0 216.1,50.0 218.5,50.0 220.9,50.0 223.3,50.0 225.7,50.0 228.2,50.0 230.6,50.0 233.0,50.0 235.4,50.0 237.8,50.0 240.3,50.0 242.7,50.0 245.1,50.0 247.5,50.0 249.9,50.0 252.4,50.0 254.8,50.0 257.2,50.0 259.6,50.0 262.0,50.0 264.5,50.0 266.9,50.0 269.3,50.0 271.7,50.0 274.1,50.0 276.6,50.0 279.0,50.0 281.4,50.0 283.8,50.0 286.2,50.0 288.7,50.0 291.1,50.0 293.5,50.0 295.9,50.0 298.3,50.0 300.8,50.0 303.2,50.0 305.6,50.0 308.0,50.0 310.4,50.0 312.9,50.0 315.3,50.0 317.7,50.0 320.1,50.0 322.5,50.0 325.0,50.0 327.4,50.0 329.8,50.0 332.2,50.0 334.6,50.0 337.1,50.0 339.5,50.0 341.9,50.0 344.3,50.0 346.8,50.0 349.2,50.0 351.6,50.0 354.0,50.0 356.4,50.0 358.9,50.0 361.3,50.0 363.7,50.0 366.1,50.0 368.5,50.0 371.0,50.0 373.4,50.0 375.8,50.0 378.2,50.0 380.6,50.0 383.1,50.0 385.5,50.0 387.9,50.0 390.3,50.0 392.7,50.0 395.2,50.0 397.6,50.0 400.0,50.0 402.4,50.0 404.8,50.0 407.3,50.0 409.7,50.0 412.1,50.0 414.5,50.0 416.9,50.0 419.4,50.0 421.8,50.0 424.2,50.0 426.6,50.0 429.0,50.0 431.5,50.0 433.9,50.0 436.3,50.0 438.7,50.0 441.1,50.0 443.6,50.0 446.0,50.0 448.4,50.0 450.8,50.0 453.2,50.0 455.7,50.0 458.1,50.0 460.5,50.0 462.9,50.0 465.4,50.0 467.8,50.0 470.2,50.0 472.6,50.0 475.0,50.0 477.5,50.0 479.9,50.0 482.3,50.0 484.7,50.0 487.1,50.0 489.6,50.0 492.0,50.0 494.4,50.0 496.8,50.0 499.2,50.0 501.7,50.0 504.1,50.0 506.5,50.0 508.9,50.0 511.3,50.0 513.8,50.0 516.2,50.0 518.6,50.0 521.0,50.0 523.4,50.0 525.9,50.0 528.3,50.0 530.7,50.0 533.1,50.0 535.5,50.0 538.0,50.0 540.4,50.0 542.8,50.0 545.2,50.0 547.6,50.0 550.1,50.0 552.5,50.0 554.9,50.0 557.3,50.0 559.7,50.0 562.2,50.0 564.6,50.0 567.0,50.0 569.4,50.0 571.8,50.0 574.3,50.0 576.7,50.0 579.1,50.0 581.5,50.0 583.9,50.0 586.4,50.0 588.8,50.0 591.2,50.0 593.6,50.0 596.1,50.0 598.5,50.0 600.9,50.0 603.3,50.0 605.7,50.0 608.2,50.0 610.6,50.0 613.0,50.0 615.4,50.0 617.8,50.0 620.3,50.0 622.7,50.0 625.1,50.0 627.5,50.0 629.9,50.0 632.4,50.0 634.8,50.0 637.2,50.0 639.6,50.0 642.0,50.0 644.5,50.0 646.9,50.0 649.3,50.0 651.7,50.0 654.1,50.0 656.6,50.0 659.0,50.0 661.4,50.0 663.8,50.0 666.2,50.0 668.7,50.0 671.1,50.0 673.5,50.0 675.9,50.0 678.3,50.0 680.8,50.0 683.2,50.0 685.6,50.0 688.0,50.0 690.4,50.0 692.9,50.0 695.3,50.0 697.7,50.0 700.1,50.0 702.5,50.0 705.0,50.0 707.4,50.0 709.8,50.0 712.2,50.0 714.6,50.0 717.1,50.0 719.5,50.0 721.9,50.0 724.3,50.0 726.8,50.0 729.2,50.0 731.6,50.0 734.0,50.0 736.4,50.0 738.9,50.0 741.3,50.0 743.7,50.0 746.1,50.0 748.5,50.0 751.0,50.0 753.4,50.0 755.8,50.0 758.2,50.0 760.6,50.0 763.1,50.0 765.5,50.0 767.9,50.0 770.3,50.0 772.7,50.0 775.2,50.0 777.6,50.0 780.0,50.0" />
<text x="30" y="398" font-size="13" fill="#16a34a">dqn_with_nlp</text>
<polyline fill="none" stroke="#dc2626" stroke-width="3" points="20.0,50.0 22.4,57.8 24.8,69.5 27.3,78.1 29.7,79.7 32.1,74.2 34.5,81.2 36.9,82.0 39.4,102.3 41.8,96.9 44.2,85.1 46.6,89.0 49.0,87.5 51.5,107.0 53.9,89.8 56.3,50.0 58.7,76.6 61.1,50.0 63.6,50.0 66.0,59.3 68.4,82.7 70.8,78.8 73.2,50.0 75.7,50.0 78.1,63.9 80.5,50.0 82.9,50.0 85.4,61.5 87.8,70.9 90.2,82.5 92.6,73.1 95.0,82.5 97.5,75.2 99.9,60.8 102.3,70.9 104.7,59.4 107.1,61.5 109.6,65.9 112.0,63.0 114.4,73.8 116.8,81.7 119.2,64.4 121.7,81.7 124.1,85.3 126.5,88.9 128.9,88.2 131.3,94.7 133.8,81.0 136.2,79.6 138.6,81.7 141.0,86.1 143.4,88.9 145.9,94.0 148.3,107.0 150.7,106.2 153.1,105.5 155.5,107.7 158.0,111.3 160.4,116.3 162.8,112.0 165.2,117.1 167.6,109.9 170.1,148.8 172.5,134.4 174.9,115.6 177.3,105.5 179.7,114.2 182.2,116.3 184.6,120.7 187.0,117.1 189.4,105.5 191.8,97.6 194.3,107.0 196.7,107.0 199.1,114.9 201.5,114.2 203.9,116.3 206.4,132.2 208.8,133.7 211.2,133.7 213.6,132.2 216.1,127.2 218.5,128.6 220.9,135.8 223.3,130.8 225.7,130.0 228.2,127.9 230.6,135.1 233.0,136.5 235.4,134.4 237.8,135.8 240.3,137.3 242.7,143.7 245.1,146.6 247.5,146.6 249.9,143.7 252.4,143.0 254.8,141.6 257.2,145.9 259.6,150.2 262.0,147.4 264.5,145.9 266.9,148.8 269.3,147.4 271.7,148.8 274.1,151.0 276.6,155.3 279.0,160.3 281.4,151.0 283.8,153.8 286.2,160.3 288.7,169.0 291.1,171.2 293.5,171.2 295.9,166.8 298.3,161.1 300.8,163.9 303.2,163.9 305.6,161.8 308.0,166.8 310.4,156.0 312.9,158.9 315.3,160.3 317.7,154.6 320.1,151.7 322.5,153.1 325.0,137.3 327.4,137.3 329.8,144.5 332.2,148.8 334.6,151.7 337.1,151.7 339.5,151.0 341.9,148.8 344.3,141.6 346.8,140.1 349.2,133.7 351.6,135.8 354.0,135.1 356.4,133.7 358.9,141.6 361.3,160.3 363.7,163.9 366.1,162.5 368.5,159.6 371.0,160.3 373.4,158.2 375.8,159.6 378.2,157.4 380.6,158.2 383.1,158.9 385.5,161.1 387.9,153.8 390.3,156.0 392.7,153.8 395.2,152.4 397.6,151.7 400.0,151.7 402.4,108.4 404.8,120.7 407.3,138.7 409.7,136.5 412.1,135.1 414.5,133.7 416.9,140.1 419.4,150.2 421.8,153.8 424.2,149.5 426.6,137.3 429.0,130.0 431.5,130.0 433.9,132.2 436.3,124.3 438.7,122.1 441.1,117.1 443.6,116.3 446.0,136.5 448.4,121.4 450.8,120.0 453.2,137.3 455.7,131.5 458.1,134.4 460.5,134.4 462.9,133.7 465.4,127.9 467.8,135.1 470.2,138.0 472.6,151.0 475.0,153.8 477.5,156.7 479.9,163.2 482.3,169.0 484.7,167.5 487.1,163.2 489.6,164.7 492.0,164.7 494.4,166.1 496.8,169.0 499.2,172.6 501.7,169.7 504.1,172.6 506.5,172.6 508.9,170.4 511.3,175.5 513.8,176.2 516.2,179.1 518.6,179.1 521.0,173.3 523.4,171.9 525.9,173.3 528.3,171.9 530.7,172.6 533.1,173.3 535.5,182.7 538.0,187.7 540.4,177.6 542.8,187.7 545.2,189.2 547.6,189.2 550.1,200.0 552.5,230.3 554.9,236.8 557.3,249.8 559.7,249.8 562.2,263.5 564.6,266.3 567.0,267.8 569.4,270.7 571.8,280.8 574.3,246.1 576.7,259.1 579.1,262.7 581.5,273.6 583.9,266.3 586.4,267.1 588.8,273.6 591.2,271.4 593.6,269.2 596.1,279.3 598.5,281.5 600.9,279.3 603.3,280.8 605.7,282.9 608.2,291.6 610.6,289.4 613.0,282.2 615.4,276.4 617.8,283.6 620.3,271.4 622.7,267.1 625.1,272.8 627.5,276.4 629.9,286.5 632.4,275.0 634.8,283.6 637.2,283.6 639.6,279.3 642.0,263.5 644.5,267.8 646.9,267.8 649.3,277.2 651.7,282.2 654.1,274.3 656.6,254.8 659.0,272.8 661.4,287.3 663.8,285.8 666.2,271.4 668.7,272.8 671.1,277.9 673.5,267.1 675.9,272.8 678.3,272.1 680.8,269.9 683.2,266.3 685.6,269.9 688.0,264.2 690.4,277.2 692.9,275.7 695.3,282.2 697.7,288.0 700.1,291.6 702.5,286.5 705.0,284.4 707.4,289.4 709.8,288.0 712.2,288.0 714.6,289.4 717.1,288.7 719.5,288.7 721.9,285.8 724.3,290.9 726.8,300.2 729.2,311.8 731.6,334.8 734.0,329.8 736.4,327.6 738.9,333.4 741.3,332.0 743.7,335.6 746.1,337.0 748.5,333.4 751.0,342.1 753.4,349.3 755.8,350.0 758.2,339.9 760.6,345.7 763.1,344.2 765.5,342.8 767.9,334.8 770.3,338.5 772.7,339.2 775.2,339.2 777.6,341.3 780.0,343.5" />
<text x="30" y="416" font-size="13" fill="#dc2626">dqn_without_nlp</text>
</svg>