<svg xmlns="http://www.w3.org/2000/svg" width="840" height="420" viewBox="0 0 840 420">
<rect width="840" height="420" fill="white"/>
<text x="30" y="30" font-size="20" font-family="Arial, sans-serif">Portfolio Curves</text>
<line x1="40" y1="350" x2="800" y2="350" stroke="#d1d5db"/>
<line x1="40" y1="50" x2="40" y2="350" stroke="#d1d5db"/>
<polyline fill="none" stroke="#2563eb" stroke-width="3" points="20.0,94.0 22.4,101.2 24.8,112.0 27.2,119.9 29.7,121.3 32.1,116.3 34.5,122.8 36.9,123.5 39.3,142.2 41.7,137.2 44.1,126.4 46.5,130.0 49.0,128.5 51.4,146.5 53.8,130.7 56.2,94.0 58.6,118.4 61.0,94.0 63.4,91.8 65.8,100.4 68.3,122.1 70.7,118.4 73.1,89.6 75.5,89.6 77.9,102.6 80.3,50.7 82.7,50.0 85.1,61.5 87.6,70.9 90.0,82.4 92.4,73.1 94.8,82.4 97.2,75.2 99.6,60.8 102.0,70.9 104.4,59.4 106.9,61.5 109.3,65.9 111.7,63.0 114.1,73.8 116.5,81.7 118.9,64.4 121.3,81.7 123.7,85.3 126.2,88.9 128.6,88.2 131.0,94.7 133.4,81.0 135.8,79.5 138.2,81.7 140.6,86.0 143.0,88.9 145.5,94.0 147.9,106.9 150.3,106.2 152.7,105.5 155.1,107.6 157.5,111.2 159.9,116.3 162.3,112.0 164.8,117.0 167.2,109.8 169.6,148.7 172.0,134.3 174.4,115.6 176.8,105.5 179.2,114.1 181.7,116.3 184.1,120.6 186.5,117.0 188.9,105.5 191.3,97.6 193.7,106.9 196.1,106.9 198.5,114.8 201.0,114.1 203.4,116.3 205.8,132.1 208.2,133.6 210.6,133.6 213.0,132.1 215.4,127.1 217.8,128.5 220.3,135.7 222.7,130.7 225.1,130.0 227.5,127.8 229.9,135.0 232.3,136.5 234.7,134.3 237.1,135.7 239.6,137.2 242.0,143.7 244.4,146.5 246.8,146.5 249.2,143.7 251.6,142.9 254.0,141.5 256.4,145.8 258.9,150.2 261.3,147.3 263.7,145.8 266.1,148.7 268.5,147.3 270.9,148.7 273.3,150.9 275.7,155.2 278.2,160.2 280.6,150.9 283.0,153.8 285.4,160.2 287.8,168.9 290.2,171.0 292.6,171.0 295.0,166.7 297.5,161.0 299.9,163.8 302.3,163.8 304.7,161.7 307.1,166.7 309.5,155.9 311.9,158.8 314.3,160.2 316.8,154.5 319.2,151.6 321.6,153.0 324.0,137.2 326.4,137.2 328.8,144.4 331.2,148.7 333.7,151.6 336.1,151.6 338.5,150.9 340.9,148.7 343.3,141.5 345.7,140.1 348.1,133.6 350.5,135.7 353.0,135.0 355.4,133.6 357.8,141.5 360.2,160.2 362.6,163.8 365.0,162.4 367.4,159.5 369.8,160.2 372.3,158.1 374.7,159.5 377.1,157.4 379.5,158.1 381.9,158.8 384.3,161.0 386.7,153.8 389.1,155.9 391.6,153.8 394.0,152.3 396.4,151.6 398.8,151.6 401.2,108.4 403.6,120.6 406.0,138.6 408.4,136.5 410.9,135.0 413.3,133.6 415.7,140.1 418.1,150.2 420.5,153.8 422.9,149.4 425.3,137.2 427.7,130.0 430.2,130.0 432.6,132.1 435.0,124.2 437.4,122.1 439.8,117.0 442.2,116.3 444.6,136.5 447.0,121.3 449.5,119.9 451.9,137.2 454.3,131.4 456.7,134.3 459.1,134.3 461.5,133.6 463.9,127.8 466.3,135.0 468.8,137.9 471.2,150.9 473.6,153.8 476.0,156.6 478.4,163.1 480.8,168.9 483.2,167.4 485.7,163.1 488.1,164.6 490.5,164.6 492.9,166.0 495.3,168.9 497.7,172.5 500.1,169.6 502.5,172.5 505.0,172.5 507.4,170.3 509.8,175.4 512.2,176.1 514.6,179.0 517.0,179.0 519.4,173.2 521.8,171.8 524.3,173.2 526.7,171.8 529.1,172.5 531.5,173.2 533.9,182.6 536.3,187.6 538.7,177.5 541.1,187.6 543.6,189.1 546.0,189.1 548.4,199.9 550.8,230.1 553.2,236.6 555.6,249.6 558.0,249.6 560.4,263.3 562.9,266.2 565.3,267.6 567.7,270.5 570.1,280.6 572.5,246.0 574.9,258.9 577.3,262.6 579.7,273.4 582.2,266.2 584.6,266.9 587.0,273.4 589.4,271.2 591.8,269.0 594.2,279.1 596.6,281.3 599.0,279.1 601.5,280.6 603.9,282.7 606.3,291.4 608.7,289.2 611.1,282.0 613.5,276.2 615.9,283.4 618.3,271.2 620.8,266.9 623.2,272.6 625.6,276.2 628.0,286.3 630.4,274.8 632.8,283.4 635.2,283.4 637.7,279.1 640.1,263.3 642.5,267.6 644.9,267.6 647.3,277.0 649.7,282.0 652.1,274.1 654.5,254.6 657.0,272.6 659.4,287.0 661.8,285.6 664.2,271.2 666.6,272.6 669.0,277.7 671.4,266.9 673.8,272.6 676.3,271.9 678.7,269.8 681.1,266.2 683.5,269.8 685.9,264.0 688.3,277.0 690.7,275.5 693.1,282.0 695.6,287.8 698.0,291.4 700.4,286.3 702.8,284.2 705.2,289.2 707.6,287.8 710.0,287.8 712.4,289.2 714.9,288.5 717.3,288.5 719.7,285.6 722.1,290.7 724.5,300.0 726.9,311.5 729.3,334.6 731.7,329.6 734.2,327.4 736.6,333.2 739.0,331.7 741.4,335.3 743.8,336.8 746.2,333.2 748.6,341.8 751.0,349.0 753.5,349.7 755.9,339.6 758.3,345.4 760.7,344.0 763.1,342.5 765.5,334.6 767.9,338.2 770.3,338.9 772.8,338.9 775.2,341.1 777.6,343.2 780.0,344.7" />
<text x="30" y="380" font-size="13" fill="#2563eb">buy_and_hold</text>
<polyline fill="none" stroke="#16a34a" stroke-width="3" points="20.0,94.0 22.4,94.0 24.8,94.0 27.3,94.0 29.7,94.0 32.1,94.0 34.5,94.0 36.9,94.0 39.4,94.0 41.8,94.0 44.2,94.0 46.6,94.0 49.0,94.0 51.5,94.0 53.9,94.0 56.3,94.0 58.7,94.0 61.1,94.0 63.6,94.0 66.0,94.0 68.4,94.0 70.8,94.0 73.2,94.0 75.7,94.0 78.1,94.0 80.5,94.0 82.9,94.0 85.4,94.0 87.8,94.0 90.2,94.0 92.6,94.0 95.0,94.0 97.5,94.0 99.9,94.0 102.3,94.0 104.7,94.0 107.1,94.0 109.6,94.0 112.0,94.0 114.4,94.0 116.8,94.0 119.2,94.0 121.7,94.0 124.1,94.0 126.5,94.0 128.9,94.0 131.3,94.0 133.8,94.0 136.2,94.0 138.6,94.0 141.0,94.0 143.4,94.0 145.9,94.0 148.3,94.0 150.7,94.0 153.1,94.0 155.5,94.0 158.0,94.0 160.4,94.0 162.8,94.0 165.2,94.0 167.6,94.0 170.1,94.0 172.5,94.0 174.9,94.0 177.3,94.0 179.7,94.0 182.2,94.0 184.6,94.0 187.0,94.0 189.4,94.0 191.8,94.0 194.3,94.0 196.7,94.0 199.1,94.0 201.5,94.0 203.9,94.0 206.4,94.0 208.8,94.0 211.2,94.0 213.6,94.0 216.1,94.0 218.5,94.0 220.9,94.0 223.3,94.0 225.7,94.0 228.2,94.0 230.6,94.0 233.0,94.0 235.4,94.0 237.8,94.0 240.3,94.0 242.7,94.0 245.1,94.0 247.5,94.0 249.9,94.0 252.4,94.0 254.8,94.0 257.2,94.0 259.6,94.0 262.0,94.0 264.5,94.0 266.9,94.0 269.3,94.0 271.7,94.0 274.1,94.0 276.6,94.0 279.0,94.0 281.4,94.0 283.8,94.0 286.2,94.0 288.7,94.0 291.1,94.0 293.5,94.0 295.9,94.0 298.3,94.0 300.8,94.0 303.2,94.0 305.6,94.0 308.0,94.0 310.4,94.0 312.9,94.0 315.3,94.0 317.7,94.0 320.1,94.0 322.5,94.0 325.0,94.0 327.4,94.0 329.8,94.0 332.2,94.0 334.6,94.0 337.1,94.0 339.5,94.0 341.9,94.0 344.3,94.0 346.8,94.0 349.2,94.0 351.6,94.0 354.0,94.0 356.4,94.0 358.9,94.0 361.3,94.0 363.7,94.0 366.1,94.0 368.5,94.0 371.0,94.0 373.4,94.0 375.8,94.0 378.2,94.0 380.6,94.0 383.1,94.0 385.5,94.0 387.9,94.0 390.3,94.0 392.7,94.0 395.2,94.0 397.6,94.0 400.0,94.0 402.4,94.0 404.8,94.0 407.3,94.0 409.7,94.0 412.1,94.0 414.5,94.0 416.9,94.0 419.4,94.0 421.8,94.0 424.2,94.0 426.6,94.0 429.0,94.0 431.5,94.0 433.9,94.0 436.3,94.0 438.7,94.0 441.1,94.0 443.6,94.0 446.0,94.0 448.4,94.0 450.8,94.0 453.2,94.0 455.7,94.0 458.1,94.0 460.5,94.0 462.9,94.0 465.4,94.0 467.8,94.0 470.2,94.0 472.6,94.0 475.0,94.0 477.5,94.0 479.9,94.0 482.3,94.0 484.7,94.0 487.1,94.0 489.6,94.0 492.0,94.0 494.4,94.0 496.8,94.0 499.2,94.0 501.7,94.0 504.1,94.0 506.5,94.0 508.9,94.0 511.3,94.0 513.8,94.0 516.2,94.0 518.6,94.0 521.0,94.0 523.4,94.0 525.9,94.0 528.3,94.0 530.7,94.0 533.1,94.0 535.5,94.0 538.0,94.0 540.4,94.0 542.8,94.0 545.2,94.0 547.6,94.0 550.1,94.0 552.5,94.0 554.9,94.0 557.3,94.0 559.7,94.0 562.2,94.0 564.6,94.0 567.0,94.0 569.4,94.0 571.8,94.0 574.3,94.0 576.7,94.0 579.1,94.0 581.5,94.0 583.9,94.0 586.4,94.0 588.8,94.0 591.2,94.0 593.6,94.0 596.1,94.0 598.5,94.0 600.9,94.0 603.3,94.0 605.7,94.0 608.2,94.0 610.6,94.0 613.0,94.0 615.4,94.0 617.8,94.0 620.3,94.0 622.7,94.0 625.1,94.0 627.5,94.0 629.9,94.0 632.4,94.0 634.8,94.0 637.2,94.0 639.6,94.0 642.0,94.0 644.5,94.0 646.9,94.0 649.3,94.0 651.7,94.0 654.1,94.0 656.6,94.0 659.0,94.0 661.4,94.0 663.8,94.0 666.2,94.0 668.7,94.0 671.1,94.0 673.5,94.0 675.9,94.0 678.3,94.0 680.8,94.0 683.2,94.0 685.6,94.0 688.0,94.0 690.4,94.0 692.9,94.0 695.3,94.0 697.7,94.0 700.1,94.0 702.5,94.0 705.0,94.0 707.4,94.0 709.8,94.0 712.2,94.0 714.6,94.0 717.1,94.0 719.5,94.0 721.9,94.0 724.3,94.0 726.8,94.0 729.2,94.0 731.6,94.0 734.0,94.0 736.4,94.0 738.9,94.0 741.3,94.0 743.7,94.0 746.1,94.0 748.5,94.0 751.0,94.0 753.4,94.0 755.8,94.0 758.2,94.0 760.6,94.0 763.1,94.0 765.5,94.0 767.9,94.0 770.3,94.0 772.7,94.0 775.2,94.0 777.6,94.0 780.0,94.0" />
<text x="30" y="398" font-size="13" fill="#16a34a">dqn_with_nlp</text>
<polyline fill="none" stroke="#dc2626" stroke-width="3" points="20.0,94.5 22.4,101.7 24.8,112.5 27.3,120.4 29.7,121.8 32.1,116.8 34.5,123.3 36.9,124.0 39.4,142.7 41.8,137.7 44.2,126.9 46.6,130.5 49.0,129.0 51.5,147.0 53.9,131.2 56.3,94.5 58.7,119.0 61.1,94.5 63.6,92.3 66.0,101.0 68.4,122.6 70.8,119.0 73.2,90.2 75.7,90.2 78.1,103.1 80.5,51.3 82.9,50.6 85.4,62.1 87.8,71.4 90.2,83.0 92.6,73.6 95.0,83.0 97.5,75.8 99.9,61.4 102.3,71.4 104.7,59.9 107.1,62.1 109.6,66.4 112.0,63.5 114.4,74.3 116.8,82.2 119.2,65.0 121.7,82.2 124.1,85.8 126.5,89.4 128.9,88.7 131.3,95.2 133.8,81.5 136.2,80.1 138.6,82.2 141.0,86.6 143.4,89.4 145.9,94.5 148.3,107.4 150.7,106.7 153.1,106.0 155.5,108.2 158.0,111.8 160.4,116.8 162.8,112.5 165.2,117.5 167.6,110.3 170.1,149.2 172.5,134.8 174.9,116.1 177.3,106.0 179.7,114.6 182.2,116.8 184.6,121.1 187.0,117.5 189.4,106.0 191.8,98.1 194.3,107.4 196.7,107.4 199.1,115.4 201.5,114.6 203.9,116.8 206.4,132.6 208.8,134.1 211.2,134.1 213.6,132.6 216.1,127.6 218.5,129.0 220.9,136.2 223.3,131.2 225.7,130.5 228.2,128.3 230.6,135.5 233.0,136.9 235.4,134.8 237.8,136.2 240.3,137.7 242.7,144.1 245.1,147.0 247.5,147.0 249.9,144.1 252.4,143.4 254.8,142.0 257.2,146.3 259.6,150.6 262.0,147.7 264.5,146.3 266.9,149.2 269.3,147.7 271.7,149.2 274.1,151.3 276.6,155.7 279.0,160.7 281.4,151.3 283.8,154.2 286.2,160.7 288.7,169.3 291.1,171.5 293.5,171.5 295.9,167.2 298.3,161.4 300.8,164.3 303.2,164.3 305.6,162.1 308.0,167.2 310.4,156.4 312.9,159.3 315.3,160.7 317.7,154.9 320.1,152.1 322.5,153.5 325.0,137.7 327.4,137.7 329.8,144.9 332.2,149.2 334.6,152.1 337.1,152.1 339.5,151.3 341.9,149.2 344.3,142.0 346.8,140.5 349.2,134.1 351.6,136.2 354.0,135.5 356.4,134.1 358.9,142.0 361.3,160.7 363.7,164.3 366.1,162.9 368.5,160.0 371.0,160.7 373.4,158.5 375.8,160.0 378.2,157.8 380.6,158.5 383.1,159.3 385.5,161.4 387.9,154.2 390.3,156.4 392.7,154.2 395.2,152.8 397.6,152.1 400.0,152.1 402.4,108.9 404.8,121.1 407.3,139.1 409.7,136.9 412.1,135.5 414.5,134.1 416.9,140.5 419.4,150.6 421.8,154.2 424.2,149.9 426.6,137.7 429.0,130.5 431.5,130.5 433.9,132.6 436.3,124.7 438.7,122.6 441.1,117.5 443.6,116.8 446.0,136.9 448.4,121.8 450.8,120.4 453.2,137.7 455.7,131.9 458.1,134.8 460.5,134.8 462.9,134.1 465.4,128.3 467.8,135.5 470.2,138.4 472.6,151.3 475.0,154.2 477.5,157.1 479.9,163.6 482.3,169.3 484.7,167.9 487.1,163.6 489.6,165.0 492.0,165.0 494.4,166.5 496.8,169.3 499.2,172.9 501.7,170.1 504.1,172.9 506.5,172.9 508.9,170.8 511.3,175.8 513.8,176.5 516.2,179.4 518.6,179.4 521.0,173.7 523.4,172.2 525.9,173.7 528.3,172.2 530.7,172.9 533.1,173.7 535.5,183.0 538.0,188.1 540.4,178.0 542.8,188.1 545.2,189.5 547.6,189.5 550.1,200.3 552.5,230.5 554.9,237.0 557.3,250.0 559.7,250.0 562.2,263.6 564.6,266.5 567.0,267.9 569.4,270.8 571.8,280.9 574.3,246.4 576.7,259.3 579.1,262.9 581.5,273.7 583.9,266.5 586.4,267.2 588.8,273.7 591.2,271.5 593.6,269.4 596.1,279.5 598.5,281.6 600.9,279.5 603.3,280.9 605.7,283.1 608.2,291.7 610.6,289.5 613.0,282.3 615.4,276.6 617.8,283.8 620.3,271.5 622.7,267.2 625.1,273.0 627.5,276.6 629.9,286.7 632.4,275.1 634.8,283.8 637.2,283.8 639.6,279.5 642.0,263.6 644.5,267.9 646.9,267.9 649.3,277.3 651.7,282.3 654.1,274.4 656.6,255.0 659.0,273.0 661.4,287.4 663.8,285.9 666.2,271.5 668.7,273.0 671.1,278.0 673.5,267.2 675.9,273.0 678.3,272.3 680.8,270.1 683.2,266.5 685.6,270.1 688.0,264.3 690.4,277.3 692.9,275.9 695.3,282.3 697.7,288.1 700.1,291.7 702.5,286.7 705.0,284.5 707.4,289.5 709.8,288.1 712.2,288.1 714.6,289.5 717.1,288.8 719.5,288.8 721.9,285.9 724.3,291.0 726.8,300.3 729.2,311.9 731.6,334.9 734.0,329.8 736.4,327.7 738.9,333.4 741.3,332.0 743.7,335.6 746.1,337.0 748.5,333.4 751.0,342.1 753.4,349.3 755.8,350.0 758.2,339.9 760.6,345.7 763.1,344.2 765.5,342.8 767.9,334.9 770.3,338.5 772.7,339.2 775.2,339.2 777.6,341.4 780.0,343.5" />
<text x="30" y="416" font-size="13" fill="#dc2626">dqn_without_nlp</text>
</svg>