<svg xmlns="http://www.w3.org/2000/svg" width="840" height="420" viewBox="0 0 840 420">
<rect width="840" height="420" fill="white"/>
<text x="30" y="30" font-size="20" font-family="Arial, sans-serif">Daily Sentiment Trend</text>
<line x1="40" y1="350" x2="800" y2="350" stroke="#d1d5db"/>
<line x1="40" y1="50" x2="40" y2="350" stroke="#d1d5db"/>
<polyline fill="none" stroke="#2563eb" stroke-width="3" points="20.0,350.0 22.2,200.0 24.3,350.0 26.5,350.0 28.7,200.0 30.9,350.0 33.0,50.0 35.2,350.0 37.4,50.0 39.5,200.0 41.7,50.0 43.9,50.0 46.1,350.0 48.2,200.0 50.4,50.0 52.6,200.0 54.7,50.0 56.9,350.0 59.1,200.0 61.3,200.0 63.4,200.0 65.6,200.0 67.8,350.0 69.9,50.0 72.1,200.0 74.3,200.0 76.5,50.0 78.6,200.0 80.8,50.0 83.0,50.0 85.1,350.0 87.3,350.0 89.5,200.0 91.7,200.0 93.8,350.0 96.0,50.0 98.2,200.0 100.3,50.0 102.5,350.0 104.7,50.0 106.9,50.0 109.0,200.0 111.2,200.0 113.4,200.0 115.5,350.0 117.7,50.0 119.9,350.0 122.1,350.0 124.2,50.0 126.4,50.0 128.6,200.0 130.7,200.0 132.9,350.0 135.1,350.0 137.3,200.0 139.4,350.0 141.6,350.0 143.8,350.0 145.9,200.0 148.1,50.0 150.3,350.0 152.5,350.0 154.6,200.0 156.8,200.0 159.0,196.9 161.1,200.0 163.3,50.0 165.5,350.0 167.7,50.0 169.8,50.0 172.0,50.0 174.2,350.0 176.3,350.0 178.5,200.0 180.7,200.0 182.9,50.0 185.0,50.0 187.2,350.0 189.4,200.0 191.5,350.0 193.7,50.0 195.9,350.0 198.1,200.0 200.2,350.0 202.4,350.0 204.6,200.0 206.7,50.0 208.9,200.0 211.1,200.0 213.3,350.0 215.4,200.0 217.6,350.0 219.8,50.0 221.9,200.0 224.1,200.0 226.3,50.0 228.5,350.0 230.6,350.0 232.8,200.0 235.0,350.0 237.1,125.0 239.3,50.0 241.5,350.0 243.7,200.0 245.8,200.0 248.0,275.0 250.2,200.0 252.3,200.0 254.5,350.0 256.7,200.0 258.9,50.0 261.0,200.0 263.2,200.0 265.4,200.0 267.5,200.0 269.7,50.0 271.9,200.0 274.1,200.0 276.2,350.0 278.4,350.0 280.6,200.0 282.7,200.0 284.9,50.0 287.1,200.0 289.3,275.0 291.4,200.0 293.6,200.0 295.8,350.0 297.9,50.0 300.1,350.0 302.3,200.0 304.5,200.0 306.6,50.0 308.8,50.0 311.0,125.0 313.1,50.0 315.3,50.0 317.5,350.0 319.7,200.0 321.8,50.0 324.0,125.0 326.2,200.0 328.3,200.0 330.5,50.0 332.7,350.0 334.9,50.0 337.0,350.0 339.2,50.0 341.4,50.0 343.5,350.0 345.7,200.0 347.9,350.0 350.1,50.0 352.2,50.0 354.4,200.0 356.6,50.0 358.7,350.0 360.9,200.0 363.1,275.0 365.3,50.0 367.4,350.0 369.6,350.0 371.8,50.0 373.9,200.0 376.1,350.0 378.3,350.0 380.5,50.0 382.6,50.0 384.8,200.0 387.0,200.0 389.1,50.0 391.3,50.0 393.5,350.0 395.7,50.0 397.8,350.0 400.0,50.0 402.2,350.0 404.3,350.0 406.5,200.0 408.7,50.0 410.9,50.0 413.0,50.0 415.2,50.0 417.4,50.0 419.5,50.0 421.7,50.0 423.9,50.0 426.1,200.0 428.2,350.0 430.4,50.0 432.6,50.0 434.7,350.0 436.9,200.0 439.1,200.0 441.3,50.0 443.4,50.0 445.6,50.0 447.8,350.0 449.9,200.0 452.1,200.0 454.3,200.0 456.5,350.0 458.6,350.0 460.8,350.0 463.0,200.0 465.1,50.0 467.3,50.0 469.5,50.0 471.7,350.0 473.8,125.0 476.0,350.0 478.2,200.0 480.3,350.0 482.5,261.4 484.7,256.2 486.9,200.0 489.0,230.0 491.2,125.0 493.4,200.0 495.5,300.0 497.7,50.0 499.9,50.0 502.1,200.0 504.2,200.0 506.4,200.0 508.6,125.0 510.7,50.0 512.9,350.0 515.1,275.0 517.3,189.3 519.4,225.0 521.6,350.0 523.8,200.0 525.9,264.3 528.1,200.0 530.3,200.0 532.5,350.0 534.6,237.5 536.8,237.5 539.0,300.0 541.1,350.0 543.3,225.0 545.5,200.0 547.7,260.0 549.8,275.0 552.0,146.4 554.2,216.7 556.3,200.0 558.5,275.0 560.7,181.2 562.9,200.0 565.0,200.0 567.2,265.6 569.4,150.0 571.5,215.0 573.7,200.0 575.9,125.0 578.1,275.0 580.2,200.0 582.4,200.0 584.6,200.0 586.7,200.0 588.9,183.3 591.1,200.0 593.3,50.0 595.4,200.0 597.6,350.0 599.8,194.6 601.9,200.0 604.1,350.0 606.3,237.5 608.5,350.0 610.6,200.0 612.8,350.0 615.0,200.0 617.1,275.0 619.3,150.0 621.5,185.0 623.7,200.0 625.8,350.0 628.0,200.0 630.2,350.0 632.3,189.3 634.5,237.5 636.7,112.5 638.9,221.4 641.0,200.0 643.2,275.0 645.4,200.0 647.5,350.0 649.7,150.0 651.9,200.0 654.1,200.0 656.2,50.0 658.4,350.0 660.6,50.0 662.7,350.0 664.9,50.0 667.1,350.0 669.3,125.0 671.4,242.9 673.6,200.0 675.8,350.0 677.9,125.0 680.1,260.0 682.3,275.0 684.5,80.0 686.6,50.0 688.8,50.0 691.0,50.0 693.1,100.0 695.3,275.0 697.5,157.1 699.7,275.0 701.8,200.0 704.0,200.0 706.2,222.1 708.3,251.0 710.5,167.4 712.7,237.5 714.9,219.7 717.0,186.8 719.2,170.0 721.4,211.2 723.5,178.6 725.7,200.0 727.9,200.0 730.1,195.2 732.2,225.0 734.4,197.1 736.6,207.0 738.7,216.4 740.9,200.0 743.1,50.0 745.3,140.0 747.4,191.4 749.6,146.7 751.8,170.0 753.9,154.6 756.1,169.0 758.3,148.9 760.5,148.1 762.6,151.0 764.8,181.7 767.0,138.6 769.1,174.0 771.3,125.0 773.5,154.3 775.7,165.3 777.8,163.6 780.0,164.9" />
</svg>