<svg xmlns="http://www.w3.org/2000/svg" width="840" height="420" viewBox="0 0 840 420">
<rect width="840" height="420" fill="white"/>
<text x="30" y="30" font-size="20" font-family="Arial, sans-serif">Daily Net Inflow / Outflow Proxy</text>
<line x1="40" y1="350" x2="800" y2="350" stroke="#d1d5db"/>
<line x1="40" y1="50" x2="40" y2="350" stroke="#d1d5db"/>
<line x1="40" y1="200" x2="800" y2="200" stroke="#6b7280" stroke-dasharray="4 4"/>
<rect x="40.0" y="200.0" width="1.2" height="20.5" fill="#dc2626" />
<rect x="41.6" y="200.0" width="1.2" height="20.5" fill="#dc2626" />
<rect x="43.2" y="200.0" width="1.2" height="0.0" fill="#16a34a" />
<rect x="44.8" y="200.0" width="1.2" height="19.0" fill="#dc2626" />
<rect x="46.3" y="200.0" width="1.2" height="15.7" fill="#dc2626" />
<rect x="47.9" y="200.0" width="1.2" height="0.0" fill="#16a34a" />
<rect x="49.5" y="200.0" width="1.2" height="0.0" fill="#16a34a" />
<rect x="51.1" y="190.7" width="1.2" height="9.3" fill="#16a34a" />
<rect x="52.7" y="184.1" width="1.2" height="15.9" fill="#16a34a" />
<rect x="54.3" y="194.0" width="1.2" height="6.0" fill="#16a34a" />
<rect x="55.9" y="200.0" width="1.2" height="2.9" fill="#dc2626" />
<rect x="57.5" y="200.0" width="1.2" height="28.0" fill="#dc2626" />
<rect x="59.0" y="200.0" width="1.2" height="0.0" fill="#16a34a" />
<rect x="60.6" y="200.0" width="1.2" height="0.0" fill="#16a34a" />
<rect x="62.2" y="182.5" width="1.2" height="17.5" fill="#16a34a" />
<rect x="63.8" y="181.2" width="1.2" height="18.8" fill="#16a34a" />
<rect x="65.4" y="200.0" width="1.2" height="3.4" fill="#dc2626" />
<rect x="67.0" y="200.0" width="1.2" height="15.6" fill="#dc2626" />
<rect x="68.6" y="140.0" width="1.2" height="60.0" fill="#16a34a" />
<rect x="70.1" y="200.0" width="1.2" height="0.0" fill="#16a34a" />
<rect x="71.7" y="200.0" width="1.2" height="0.0" fill="#16a34a" />
<rect x="73.3" y="161.1" width="1.2" height="38.9" fill="#16a34a" />
<rect x="74.9" y="132.7" width="1.2" height="67.3" fill="#16a34a" />
<rect x="76.5" y="200.0" width="1.2" height="59.7" fill="#dc2626" />
<rect x="78.1" y="200.0" width="1.2" height="9.8" fill="#dc2626" />
<rect x="79.7" y="194.6" width="1.2" height="5.4" fill="#16a34a" />
<rect x="81.3" y="200.0" width="1.2" height="0.0" fill="#16a34a" />
<rect x="82.8" y="200.0" width="1.2" height="0.0" fill="#16a34a" />
<rect x="84.4" y="200.0" width="1.2" height="34.5" fill="#dc2626" />
<rect x="86.0" y="200.0" width="1.2" height="0.0" fill="#16a34a" />
<rect x="87.6" y="200.0" width="1.2" height="0.0" fill="#16a34a" />
<rect x="89.2" y="200.0" width="1.2" height="0.0" fill="#16a34a" />
<rect x="90.8" y="200.0" width="1.2" height="0.0" fill="#16a34a" />
<rect x="92.4" y="200.0" width="1.2" height="0.0" fill="#16a34a" />
<rect x="93.9" y="200.0" width="1.2" height="0.0" fill="#16a34a" />
<rect x="95.5" y="200.0" width="1.2" height="0.0" fill="#16a34a" />
<rect x="97.1" y="200.0" width="1.2" height="0.0" fill="#16a34a" />
<rect x="98.7" y="200.0" width="1.2" height="24.1" fill="#dc2626" />
<rect x="100.3" y="200.0" width="1.2" height="6.8" fill="#dc2626" />
<rect x="101.9" y="178.7" width="1.2" height="21.3" fill="#16a34a" />
<rect x="103.5" y="200.0" width="1.2" height="0.0" fill="#16a34a" />
<rect x="105.1" y="200.0" width="1.2" height="0.0" fill="#16a34a" />
<rect x="106.6" y="171.2" width="1.2" height="28.8" fill="#16a34a" />
<rect x="108.2" y="200.0" width="1.2" height="34.4" fill="#dc2626" />
<rect x="109.8" y="105.5" width="1.2" height="94.5" fill="#16a34a" />
<rect x="111.4" y="194.5" width="1.2" height="5.5" fill="#16a34a" />
<rect x="113.0" y="200.0" width="1.2" height="26.4" fill="#dc2626" />
<rect x="114.6" y="200.0" width="1.2" height="0.0" fill="#16a34a" />
<rect x="116.2" y="200.0" width="1.2" height="0.0" fill="#16a34a" />
<rect x="117.7" y="200.0" width="1.2" height="28.0" fill="#dc2626" />
<rect x="119.3" y="200.0" width="1.2" height="30.9" fill="#dc2626" />
<rect x="120.9" y="182.0" width="1.2" height="18.0" fill="#16a34a" />
<rect x="122.5" y="200.0" width="1.2" height="14.6" fill="#dc2626" />
<rect x="124.1" y="196.2" width="1.2" height="3.8" fill="#16a34a" />
<rect x="125.7" y="200.0" width="1.2" height="0.0" fill="#16a34a" />
<rect x="127.3" y="200.0" width="1.2" height="0.0" fill="#16a34a" />
<rect x="128.9" y="200.0" width="1.2" height="17.0" fill="#dc2626" />
<rect x="130.4" y="200.0" width="1.2" height="38.0" fill="#dc2626" />
<rect x="132.0" y="164.3" width="1.2" height="35.7" fill="#16a34a" />
<rect x="133.6" y="200.0" width="1.2" height="2.8" fill="#dc2626" />
<rect x="135.2" y="200.0" width="1.2" height="36.7" fill="#dc2626" />
<rect x="136.8" y="200.0" width="1.2" height="0.0" fill="#16a34a" />
<rect x="138.4" y="200.0" width="1.2" height="0.0" fill="#16a34a" />
<rect x="140.0" y="200.0" width="1.2" height="28.5" fill="#dc2626" />
<rect x="141.5" y="196.5" width="1.2" height="3.5" fill="#16a34a" />
<rect x="143.1" y="200.0" width="1.2" height="5.9" fill="#dc2626" />
<rect x="144.7" y="168.4" width="1.2" height="31.6" fill="#16a34a" />
<rect x="146.3" y="200.0" width="1.2" height="32.2" fill="#dc2626" />
<rect x="147.9" y="200.0" width="1.2" height="0.0" fill="#16a34a" />
<rect x="149.5" y="200.0" width="1.2" height="0.0" fill="#16a34a" />
<rect x="151.1" y="200.0" width="1.2" height="8.8" fill="#dc2626" />
<rect x="152.7" y="187.8" width="1.2" height="12.2" fill="#16a34a" />
<rect x="154.2" y="200.0" width="1.2" height="0.0" fill="#16a34a" />
<rect x="155.8" y="200.0" width="1.2" height="11.1" fill="#dc2626" />
<rect x="157.4" y="181.3" width="1.2" height="18.7" fill="#16a34a" />
<rect x="159.0" y="200.0" width="1.2" height="0.0" fill="#16a34a" />
<rect x="160.6" y="200.0" width="1.2" height="0.0" fill="#16a34a" />
<rect x="162.2" y="200.0" width="1.2" height="24.1" fill="#dc2626" />
<rect x="163.8" y="200.0" width="1.2" height="4.2" fill="#dc2626" />
<rect x="165.3" y="200.0" width="1.2" height="1.8" fill="#dc2626" />
<rect x="166.9" y="200.0" width="1.2" height="7.1" fill="#dc2626" />
<rect x="168.5" y="194.0" width="1.2" height="6.0" fill="#16a34a" />
<rect x="170.1" y="200.0" width="1.2" height="0.0" fill="#16a34a" />
<rect x="171.7" y="200.0" width="1.2" height="0.0" fill="#16a34a" />
<rect x="173.3" y="200.0" width="1.2" height="16.5" fill="#dc2626" />
<rect x="174.9" y="198.4" width="1.2" height="1.6" fill="#16a34a" />
<rect x="176.5" y="200.0" width="1.2" height="8.0" fill="#dc2626" />
<rect x="178.0" y="198.9" width="1.2" height="1.1" fill="#16a34a" />
<rect x="179.6" y="200.0" width="1.2" height="8.7" fill="#dc2626" />
<rect x="181.2" y="200.0" width="1.2" height="0.0" fill="#16a34a" />
<rect x="182.8" y="200.0" width="1.2" height="0.0" fill="#16a34a" />
<rect x="184.4" y="198.8" width="1.2" height="1.2" fill="#16a34a" />
<rect x="186.0" y="200.0" width="1.2" height="2.8" fill="#dc2626" />
<rect x="187.6" y="200.0" width="1.2" height="5.6" fill="#dc2626" />
<rect x="189.1" y="194.9" width="1.2" height="5.1" fill="#16a34a" />
<rect x="190.7" y="200.0" width="1.2" height="0.0" fill="#16a34a" />
<rect x="192.3" y="200.0" width="1.2" height="0.0" fill="#16a34a" />
<rect x="193.9" y="200.0" width="1.2" height="0.0" fill="#16a34a" />
<rect x="195.5" y="200.0" width="1.2" height="16.4" fill="#dc2626" />
<rect x="197.1" y="179.8" width="1.2" height="20.2" fill="#16a34a" />
<rect x="198.7" y="175.5" width="1.2" height="24.5" fill="#16a34a" />
<rect x="200.3" y="174.9" width="1.2" height="25.1" fill="#16a34a" />
<rect x="201.8" y="200.0" width="1.2" height="6.1" fill="#dc2626" />
<rect x="203.4" y="200.0" width="1.2" height="0.0" fill="#16a34a" />
<rect x="205.0" y="200.0" width="1.2" height="0.0" fill="#16a34a" />
<rect x="206.6" y="200.0" width="1.2" height="10.5" fill="#dc2626" />
<rect x="208.2" y="197.2" width="1.2" height="2.8" fill="#16a34a" />
<rect x="209.8" y="194.8" width="1.2" height="5.2" fill="#16a34a" />
<rect x="211.4" y="190.3" width="1.2" height="9.7" fill="#16a34a" />
<rect x="212.9" y="177.1" width="1.2" height="22.9" fill="#16a34a" />
<rect x="214.5" y="200.0" width="1.2" height="0.0" fill="#16a34a" />
<rect x="216.1" y="200.0" width="1.2" height="0.0" fill="#16a34a" />
<rect x="217.7" y="200.0" width="1.2" height="3.3" fill="#dc2626" />
<rect x="219.3" y="197.9" width="1.2" height="2.1" fill="#16a34a" />
<rect x="220.9" y="200.0" width="1.2" height="18.7" fill="#dc2626" />
<rect x="222.5" y="200.0" width="1.2" height="0.0" fill="#16a34a" />
<rect x="224.1" y="200.0" width="1.2" height="40.4" fill="#dc2626" />
<rect x="225.6" y="200.0" width="1.2" height="0.0" fill="#16a34a" />
<rect x="227.2" y="200.0" width="1.2" height="0.0" fill="#16a34a" />
<rect x="228.8" y="200.0" width="1.2" height="22.5" fill="#dc2626" />
<rect x="230.4" y="200.0" width="1.2" height="9.3" fill="#dc2626" />
<rect x="232.0" y="182.4" width="1.2" height="17.6" fill="#16a34a" />
<rect x="233.6" y="200.0" width="1.2" height="0.0" fill="#16a34a" />
<rect x="235.2" y="200.0" width="1.2" height="0.0" fill="#16a34a" />
<rect x="236.7" y="200.0" width="1.2" height="0.0" fill="#16a34a" />
<rect x="238.3" y="200.0" width="1.2" height="0.0" fill="#16a34a" />
<rect x="239.9" y="200.0" width="1.2" height="0.0" fill="#16a34a" />
<rect x="241.5" y="189.7" width="1.2" height="10.3" fill="#16a34a" />
<rect x="243.1" y="200.0" width="1.2" height="22.7" fill="#dc2626" />
<rect x="244.7" y="197.8" width="1.2" height="2.2" fill="#16a34a" />
<rect x="246.3" y="200.0" width="1.2" height="15.5" fill="#dc2626" />
<rect x="247.8" y="200.0" width="1.2" height="0.0" fill="#16a34a" />
<rect x="249.4" y="200.0" width="1.2" height="0.0" fill="#16a34a" />
<rect x="251.0" y="186.6" width="1.2" height="13.4" fill="#16a34a" />
<rect x="252.6" y="200.0" width="1.2" height="5.4" fill="#dc2626" />
<rect x="254.2" y="196.3" width="1.2" height="3.7" fill="#16a34a" />
<rect x="255.8" y="200.0" width="1.2" height="16.0" fill="#dc2626" />
<rect x="257.4" y="200.0" width="1.2" height="1.3" fill="#dc2626" />
<rect x="259.0" y="200.0" width="1.2" height="0.0" fill="#16a34a" />
<rect x="260.5" y="200.0" width="1.2" height="0.0" fill="#16a34a" />
<rect x="262.1" y="195.2" width="1.2" height="4.8" fill="#16a34a" />
<rect x="263.7" y="197.8" width="1.2" height="2.2" fill="#16a34a" />
<rect x="265.3" y="200.0" width="1.2" height="4.6" fill="#dc2626" />
<rect x="266.9" y="200.0" width="1.2" height="10.0" fill="#dc2626" />
<rect x="268.5" y="200.0" width="1.2" height="9.2" fill="#dc2626" />
<rect x="270.1" y="200.0" width="1.2" height="0.0" fill="#16a34a" />
<rect x="271.6" y="200.0" width="1.2" height="0.0" fill="#16a34a" />
<rect x="273.2" y="198.4" width="1.2" height="1.6" fill="#16a34a" />
<rect x="274.8" y="198.9" width="1.2" height="1.1" fill="#16a34a" />
<rect x="276.4" y="200.0" width="1.2" height="6.6" fill="#dc2626" />
<rect x="278.0" y="200.0" width="1.2" height="0.0" fill="#16a34a" />
<rect x="279.6" y="200.0" width="1.2" height="10.1" fill="#dc2626" />
<rect x="281.2" y="200.0" width="1.2" height="0.0" fill="#16a34a" />
<rect x="282.8" y="200.0" width="1.2" height="0.0" fill="#16a34a" />
<rect x="284.3" y="200.0" width="1.2" height="0.0" fill="#16a34a" />
<rect x="285.9" y="195.6" width="1.2" height="4.4" fill="#16a34a" />
<rect x="287.5" y="195.5" width="1.2" height="4.5" fill="#16a34a" />
<rect x="289.1" y="195.5" width="1.2" height="4.5" fill="#16a34a" />
<rect x="290.7" y="200.0" width="1.2" height="6.7" fill="#dc2626" />
<rect x="292.3" y="200.0" width="1.2" height="0.0" fill="#16a34a" />
<rect x="293.9" y="200.0" width="1.2" height="0.0" fill="#16a34a" />
<rect x="295.4" y="196.9" width="1.2" height="3.1" fill="#16a34a" />
<rect x="297.0" y="200.0" width="1.2" height="11.4" fill="#dc2626" />
<rect x="298.6" y="200.0" width="1.2" height="2.9" fill="#dc2626" />
<rect x="300.2" y="200.0" width="1.2" height="5.5" fill="#dc2626" />
<rect x="301.8" y="200.0" width="1.2" height="9.8" fill="#dc2626" />
<rect x="303.4" y="200.0" width="1.2" height="0.0" fill="#16a34a" />
<rect x="305.0" y="200.0" width="1.2" height="0.0" fill="#16a34a" />
<rect x="306.6" y="191.1" width="1.2" height="8.9" fill="#16a34a" />
<rect x="308.1" y="200.0" width="1.2" height="5.1" fill="#dc2626" />
<rect x="309.7" y="200.0" width="1.2" height="8.1" fill="#dc2626" />
<rect x="311.3" y="200.0" width="1.2" height="11.7" fill="#dc2626" />
<rect x="312.9" y="200.0" width="1.2" height="6.9" fill="#dc2626" />
<rect x="314.5" y="200.0" width="1.2" height="0.0" fill="#16a34a" />
<rect x="316.1" y="200.0" width="1.2" height="0.0" fill="#16a34a" />
<rect x="317.7" y="191.6" width="1.2" height="8.4" fill="#16a34a" />
<rect x="319.2" y="193.2" width="1.2" height="6.8" fill="#16a34a" />
<rect x="320.8" y="183.5" width="1.2" height="16.5" fill="#16a34a" />
<rect x="322.4" y="200.0" width="1.2" height="8.8" fill="#dc2626" />
<rect x="324.0" y="200.0" width="1.2" height="12.6" fill="#dc2626" />
<rect x="325.6" y="200.0" width="1.2" height="0.0" fill="#16a34a" />
<rect x="327.2" y="200.0" width="1.2" height="0.0" fill="#16a34a" />
<rect x="328.8" y="200.0" width="1.2" height="0.0" fill="#16a34a" />
<rect x="330.4" y="200.0" width="1.2" height="3.2" fill="#dc2626" />
<rect x="331.9" y="179.3" width="1.2" height="20.7" fill="#16a34a" />
<rect x="333.5" y="200.0" width="1.2" height="10.4" fill="#dc2626" />
<rect x="335.1" y="200.0" width="1.2" height="7.2" fill="#dc2626" />
<rect x="336.7" y="200.0" width="1.2" height="0.0" fill="#16a34a" />
<rect x="338.3" y="200.0" width="1.2" height="0.0" fill="#16a34a" />
<rect x="339.9" y="198.4" width="1.2" height="1.6" fill="#16a34a" />
<rect x="341.5" y="187.8" width="1.2" height="12.2" fill="#16a34a" />
<rect x="343.0" y="200.0" width="1.2" height="5.0" fill="#dc2626" />
<rect x="344.6" y="179.3" width="1.2" height="20.7" fill="#16a34a" />
<rect x="346.2" y="184.4" width="1.2" height="15.6" fill="#16a34a" />
<rect x="347.8" y="200.0" width="1.2" height="0.0" fill="#16a34a" />
<rect x="349.4" y="200.0" width="1.2" height="0.0" fill="#16a34a" />
<rect x="351.0" y="200.0" width="1.2" height="15.7" fill="#dc2626" />
<rect x="352.6" y="185.1" width="1.2" height="14.9" fill="#16a34a" />
<rect x="354.2" y="200.0" width="1.2" height="8.7" fill="#dc2626" />
<rect x="355.7" y="196.4" width="1.2" height="3.6" fill="#16a34a" />
<rect x="357.3" y="197.6" width="1.2" height="2.4" fill="#16a34a" />
<rect x="358.9" y="200.0" width="1.2" height="0.0" fill="#16a34a" />
<rect x="360.5" y="200.0" width="1.2" height="0.0" fill="#16a34a" />
<rect x="362.1" y="189.8" width="1.2" height="10.2" fill="#16a34a" />
<rect x="363.7" y="175.4" width="1.2" height="24.6" fill="#16a34a" />
<rect x="365.3" y="200.0" width="1.2" height="16.7" fill="#dc2626" />
<rect x="366.8" y="174.6" width="1.2" height="25.4" fill="#16a34a" />
<rect x="368.4" y="200.0" width="1.2" height="13.1" fill="#dc2626" />
<rect x="370.0" y="200.0" width="1.2" height="0.0" fill="#16a34a" />
<rect x="371.6" y="200.0" width="1.2" height="0.0" fill="#16a34a" />
<rect x="373.2" y="190.5" width="1.2" height="9.5" fill="#16a34a" />
<rect x="374.8" y="178.9" width="1.2" height="21.1" fill="#16a34a" />
<rect x="376.4" y="200.0" width="1.2" height="29.8" fill="#dc2626" />
<rect x="378.0" y="200.0" width="1.2" height="39.2" fill="#dc2626" />
<rect x="379.5" y="200.0" width="1.2" height="18.4" fill="#dc2626" />
<rect x="381.1" y="200.0" width="1.2" height="0.0" fill="#16a34a" />
<rect x="382.7" y="200.0" width="1.2" height="0.0" fill="#16a34a" />
<rect x="384.3" y="188.2" width="1.2" height="11.8" fill="#16a34a" />
<rect x="385.9" y="186.8" width="1.2" height="13.2" fill="#16a34a" />
<rect x="387.5" y="193.1" width="1.2" height="6.9" fill="#16a34a" />
<rect x="389.1" y="188.2" width="1.2" height="11.8" fill="#16a34a" />
<rect x="390.6" y="197.9" width="1.2" height="2.1" fill="#16a34a" />
<rect x="392.2" y="200.0" width="1.2" height="0.0" fill="#16a34a" />
<rect x="393.8" y="200.0" width="1.2" height="0.0" fill="#16a34a" />
<rect x="395.4" y="200.0" width="1.2" height="10.0" fill="#dc2626" />
<rect x="397.0" y="200.0" width="1.2" height="3.0" fill="#dc2626" />
<rect x="398.6" y="200.0" width="1.2" height="2.3" fill="#dc2626" />
<rect x="400.2" y="200.0" width="1.2" height="24.1" fill="#dc2626" />
<rect x="401.8" y="190.4" width="1.2" height="9.6" fill="#16a34a" />
<rect x="403.3" y="200.0" width="1.2" height="0.0" fill="#16a34a" />
<rect x="404.9" y="200.0" width="1.2" height="0.0" fill="#16a34a" />
<rect x="406.5" y="200.0" width="1.2" height="14.0" fill="#dc2626" />
<rect x="408.1" y="200.0" width="1.2" height="19.9" fill="#dc2626" />
<rect x="409.7" y="197.6" width="1.2" height="2.4" fill="#16a34a" />
<rect x="411.3" y="200.0" width="1.2" height="0.0" fill="#dc2626" />
<rect x="412.9" y="173.2" width="1.2" height="26.8" fill="#16a34a" />
<rect x="414.4" y="200.0" width="1.2" height="0.0" fill="#16a34a" />
<rect x="416.0" y="200.0" width="1.2" height="0.0" fill="#16a34a" />
<rect x="417.6" y="60.0" width="1.2" height="140.0" fill="#16a34a" />
<rect x="419.2" y="163.2" width="1.2" height="36.8" fill="#16a34a" />
<rect x="420.8" y="200.0" width="1.2" height="62.7" fill="#dc2626" />
<rect x="422.4" y="174.0" width="1.2" height="26.0" fill="#16a34a" />
<rect x="424.0" y="200.0" width="1.2" height="36.0" fill="#dc2626" />
<rect x="425.6" y="200.0" width="1.2" height="0.0" fill="#16a34a" />
<rect x="427.1" y="200.0" width="1.2" height="0.0" fill="#16a34a" />
<rect x="428.7" y="188.8" width="1.2" height="11.2" fill="#16a34a" />
<rect x="430.3" y="200.0" width="1.2" height="26.8" fill="#dc2626" />
<rect x="431.9" y="200.0" width="1.2" height="29.7" fill="#dc2626" />
<rect x="433.5" y="200.0" width="1.2" height="5.2" fill="#dc2626" />
<rect x="435.1" y="175.9" width="1.2" height="24.1" fill="#16a34a" />
<rect x="436.7" y="200.0" width="1.2" height="0.0" fill="#16a34a" />
<rect x="438.2" y="200.0" width="1.2" height="0.0" fill="#16a34a" />
<rect x="439.8" y="200.0" width="1.2" height="26.0" fill="#dc2626" />
<rect x="441.4" y="180.8" width="1.2" height="19.2" fill="#16a34a" />
<rect x="443.0" y="170.0" width="1.2" height="30.0" fill="#16a34a" />
<rect x="444.6" y="174.4" width="1.2" height="25.6" fill="#16a34a" />
<rect x="446.2" y="200.0" width="1.2" height="20.3" fill="#dc2626" />
<rect x="447.8" y="200.0" width="1.2" height="0.0" fill="#16a34a" />
<rect x="449.4" y="200.0" width="1.2" height="0.0" fill="#16a34a" />
<rect x="450.9" y="181.9" width="1.2" height="18.1" fill="#16a34a" />
<rect x="452.5" y="157.1" width="1.2" height="42.9" fill="#16a34a" />
<rect x="454.1" y="178.0" width="1.2" height="22.0" fill="#16a34a" />
<rect x="455.7" y="200.0" width="1.2" height="34.0" fill="#dc2626" />
<rect x="457.3" y="160.2" width="1.2" height="39.8" fill="#16a34a" />
<rect x="458.9" y="200.0" width="1.2" height="0.0" fill="#16a34a" />
<rect x="460.5" y="200.0" width="1.2" height="0.0" fill="#16a34a" />
<rect x="462.0" y="187.2" width="1.2" height="12.8" fill="#16a34a" />
<rect x="463.6" y="200.0" width="1.2" height="15.9" fill="#dc2626" />
<rect x="465.2" y="193.3" width="1.2" height="6.7" fill="#16a34a" />
<rect x="466.8" y="200.0" width="1.2" height="11.2" fill="#dc2626" />
<rect x="468.4" y="200.0" width="1.2" height="14.1" fill="#dc2626" />
<rect x="470.0" y="200.0" width="1.2" height="0.0" fill="#16a34a" />
<rect x="471.6" y="200.0" width="1.2" height="0.0" fill="#16a34a" />
<rect x="473.2" y="184.2" width="1.2" height="15.8" fill="#16a34a" />
<rect x="474.7" y="179.9" width="1.2" height="20.1" fill="#16a34a" />
<rect x="476.3" y="200.0" width="1.2" height="0.0" fill="#16a34a" />
<rect x="477.9" y="200.0" width="1.2" height="0.0" fill="#16a34a" />
<rect x="479.5" y="200.0" width="1.2" height="0.0" fill="#16a34a" />
<rect x="481.1" y="200.0" width="1.2" height="0.0" fill="#16a34a" />
<rect x="482.7" y="200.0" width="1.2" height="0.0" fill="#16a34a" />
<rect x="484.3" y="200.0" width="1.2" height="0.0" fill="#16a34a" />
<rect x="485.8" y="200.0" width="1.2" height="0.0" fill="#16a34a" />
<rect x="487.4" y="200.0" width="1.2" height="0.0" fill="#16a34a" />
<rect x="489.0" y="156.6" width="1.2" height="43.4" fill="#16a34a" />
<rect x="490.6" y="200.0" width="1.2" height="21.1" fill="#dc2626" />
<rect x="492.2" y="200.0" width="1.2" height="0.0" fill="#16a34a" />
<rect x="493.8" y="200.0" width="1.2" height="0.0" fill="#16a34a" />
<rect x="495.4" y="188.8" width="1.2" height="11.2" fill="#16a34a" />
<rect x="497.0" y="200.0" width="1.2" height="34.5" fill="#dc2626" />
<rect x="498.5" y="200.0" width="1.2" height="2.4" fill="#dc2626" />
<rect x="500.1" y="200.0" width="1.2" height="17.2" fill="#dc2626" />
<rect x="501.7" y="200.0" width="1.2" height="23.5" fill="#dc2626" />
<rect x="503.3" y="200.0" width="1.2" height="0.0" fill="#16a34a" />
<rect x="504.9" y="200.0" width="1.2" height="0.0" fill="#16a34a" />
<rect x="506.5" y="189.7" width="1.2" height="10.3" fill="#16a34a" />
<rect x="508.1" y="183.7" width="1.2" height="16.3" fill="#16a34a" />
<rect x="509.6" y="200.0" width="1.2" height="5.2" fill="#dc2626" />
<rect x="511.2" y="200.0" width="1.2" height="0.0" fill="#16a34a" />
<rect x="512.8" y="200.0" width="1.2" height="2.9" fill="#dc2626" />
<rect x="514.4" y="200.0" width="1.2" height="0.0" fill="#16a34a" />
<rect x="516.0" y="200.0" width="1.2" height="0.0" fill="#16a34a" />
<rect x="517.6" y="200.0" width="1.2" height="14.9" fill="#dc2626" />
<rect x="519.2" y="200.0" width="1.2" height="12.8" fill="#dc2626" />
<rect x="520.8" y="187.3" width="1.2" height="12.7" fill="#16a34a" />
<rect x="522.3" y="200.0" width="1.2" height="9.6" fill="#dc2626" />
<rect x="523.9" y="193.4" width="1.2" height="6.6" fill="#16a34a" />
<rect x="525.5" y="200.0" width="1.2" height="0.0" fill="#16a34a" />
<rect x="527.1" y="200.0" width="1.2" height="0.0" fill="#16a34a" />
<rect x="528.7" y="195.5" width="1.2" height="4.5" fill="#16a34a" />
<rect x="530.3" y="200.0" width="1.2" height="11.7" fill="#dc2626" />
<rect x="531.9" y="193.3" width="1.2" height="6.7" fill="#16a34a" />
<rect x="533.4" y="200.0" width="1.2" height="10.3" fill="#dc2626" />
<rect x="535.0" y="200.0" width="1.2" height="2.0" fill="#dc2626" />
<rect x="536.6" y="200.0" width="1.2" height="0.0" fill="#16a34a" />
<rect x="538.2" y="200.0" width="1.2" height="0.0" fill="#16a34a" />
<rect x="539.8" y="179.8" width="1.2" height="20.2" fill="#16a34a" />
<rect x="541.4" y="195.6" width="1.2" height="4.4" fill="#16a34a" />
<rect x="543.0" y="200.0" width="1.2" height="9.4" fill="#dc2626" />
<rect x="544.6" y="185.0" width="1.2" height="15.0" fill="#16a34a" />
<rect x="546.1" y="200.0" width="1.2" height="9.9" fill="#dc2626" />
<rect x="547.7" y="200.0" width="1.2" height="0.0" fill="#16a34a" />
<rect x="549.3" y="200.0" width="1.2" height="0.0" fill="#16a34a" />
<rect x="550.9" y="200.0" width="1.2" height="3.3" fill="#dc2626" />
<rect x="552.5" y="200.0" width="1.2" height="24.3" fill="#dc2626" />
<rect x="554.1" y="200.0" width="1.2" height="10.8" fill="#dc2626" />
<rect x="555.7" y="187.3" width="1.2" height="12.7" fill="#16a34a" />
<rect x="557.2" y="200.0" width="1.2" height="23.3" fill="#dc2626" />
<rect x="558.8" y="200.0" width="1.2" height="0.0" fill="#16a34a" />
<rect x="560.4" y="200.0" width="1.2" height="0.0" fill="#16a34a" />
<rect x="562.0" y="200.0" width="1.2" height="19.0" fill="#dc2626" />
<rect x="563.6" y="200.0" width="1.2" height="6.0" fill="#dc2626" />
<rect x="565.2" y="200.0" width="1.2" height="32.8" fill="#dc2626" />
<rect x="566.8" y="200.0" width="1.2" height="19.4" fill="#dc2626" />
<rect x="568.4" y="197.6" width="1.2" height="2.4" fill="#16a34a" />
<rect x="569.9" y="200.0" width="1.2" height="0.0" fill="#16a34a" />
<rect x="571.5" y="200.0" width="1.2" height="0.0" fill="#16a34a" />
<rect x="573.1" y="200.0" width="1.2" height="33.8" fill="#dc2626" />
<rect x="574.7" y="200.0" width="1.2" height="13.7" fill="#dc2626" />
<rect x="576.3" y="200.0" width="1.2" height="39.9" fill="#dc2626" />
<rect x="577.9" y="200.0" width="1.2" height="10.2" fill="#dc2626" />
<rect x="579.5" y="163.1" width="1.2" height="36.9" fill="#16a34a" />
<rect x="581.0" y="200.0" width="1.2" height="0.0" fill="#16a34a" />
<rect x="582.6" y="200.0" width="1.2" height="0.0" fill="#16a34a" />
<rect x="584.2" y="200.0" width="1.2" height="22.5" fill="#dc2626" />
<rect x="585.8" y="200.0" width="1.2" height="31.0" fill="#dc2626" />
<rect x="587.4" y="95.6" width="1.2" height="104.4" fill="#16a34a" />
<rect x="589.0" y="200.0" width="1.2" height="61.8" fill="#dc2626" />
<rect x="590.6" y="200.0" width="1.2" height="47.4" fill="#dc2626" />
<rect x="592.2" y="200.0" width="1.2" height="0.0" fill="#16a34a" />
<rect x="593.7" y="200.0" width="1.2" height="0.0" fill="#16a34a" />
<rect x="595.3" y="200.0" width="1.2" height="0.0" fill="#16a34a" />
<rect x="596.9" y="195.2" width="1.2" height="4.8" fill="#16a34a" />
<rect x="598.5" y="173.9" width="1.2" height="26.1" fill="#16a34a" />
<rect x="600.1" y="200.0" width="1.2" height="8.9" fill="#dc2626" />
<rect x="601.7" y="194.9" width="1.2" height="5.1" fill="#16a34a" />
<rect x="603.3" y="200.0" width="1.2" height="0.0" fill="#16a34a" />
<rect x="604.8" y="200.0" width="1.2" height="0.0" fill="#16a34a" />
<rect x="606.4" y="192.0" width="1.2" height="8.0" fill="#16a34a" />
<rect x="608.0" y="200.0" width="1.2" height="21.5" fill="#dc2626" />
<rect x="609.6" y="200.0" width="1.2" height="17.2" fill="#dc2626" />
<rect x="611.2" y="190.2" width="1.2" height="9.8" fill="#16a34a" />
<rect x="612.8" y="200.0" width="1.2" height="11.1" fill="#dc2626" />
<rect x="614.4" y="200.0" width="1.2" height="0.0" fill="#16a34a" />
<rect x="615.9" y="200.0" width="1.2" height="0.0" fill="#16a34a" />
<rect x="617.5" y="200.0" width="1.2" height="7.7" fill="#dc2626" />
<rect x="619.1" y="200.0" width="1.2" height="21.9" fill="#dc2626" />
<rect x="620.7" y="200.0" width="1.2" height="0.0" fill="#16a34a" />
<rect x="622.3" y="200.0" width="1.2" height="0.0" fill="#16a34a" />
<rect x="623.9" y="200.0" width="1.2" height="0.0" fill="#16a34a" />
<rect x="625.5" y="200.0" width="1.2" height="0.0" fill="#16a34a" />
<rect x="627.1" y="200.0" width="1.2" height="0.0" fill="#16a34a" />
<rect x="628.6" y="182.7" width="1.2" height="17.3" fill="#16a34a" />
<rect x="630.2" y="180.6" width="1.2" height="19.4" fill="#16a34a" />
<rect x="631.8" y="200.0" width="1.2" height="23.4" fill="#dc2626" />
<rect x="633.4" y="183.0" width="1.2" height="17.0" fill="#16a34a" />
<rect x="635.0" y="187.6" width="1.2" height="12.4" fill="#16a34a" />
<rect x="636.6" y="200.0" width="1.2" height="0.0" fill="#16a34a" />
<rect x="638.2" y="200.0" width="1.2" height="0.0" fill="#16a34a" />
<rect x="639.7" y="200.0" width="1.2" height="7.6" fill="#dc2626" />
<rect x="641.3" y="200.0" width="1.2" height="25.5" fill="#dc2626" />
<rect x="642.9" y="200.0" width="1.2" height="41.0" fill="#dc2626" />
<rect x="644.5" y="194.2" width="1.2" height="5.8" fill="#16a34a" />
<rect x="646.1" y="200.0" width="1.2" height="26.5" fill="#dc2626" />
<rect x="647.7" y="200.0" width="1.2" height="0.0" fill="#16a34a" />
<rect x="649.3" y="200.0" width="1.2" height="0.0" fill="#16a34a" />
<rect x="650.9" y="198.1" width="1.2" height="1.9" fill="#16a34a" />
<rect x="652.4" y="193.7" width="1.2" height="6.3" fill="#16a34a" />
<rect x="654.0" y="173.3" width="1.2" height="26.7" fill="#16a34a" />
<rect x="655.6" y="200.0" width="1.2" height="18.1" fill="#dc2626" />
<rect x="657.2" y="186.6" width="1.2" height="13.4" fill="#16a34a" />
<rect x="658.8" y="200.0" width="1.2" height="0.0" fill="#16a34a" />
<rect x="660.4" y="200.0" width="1.2" height="0.0" fill="#16a34a" />
<rect x="662.0" y="200.0" width="1.2" height="35.7" fill="#dc2626" />
<rect x="663.5" y="200.0" width="1.2" height="11.8" fill="#dc2626" />
<rect x="665.1" y="200.0" width="1.2" height="7.1" fill="#dc2626" />
<rect x="666.7" y="126.6" width="1.2" height="73.4" fill="#16a34a" />
<rect x="668.3" y="200.0" width="1.2" height="57.1" fill="#dc2626" />
<rect x="669.9" y="200.0" width="1.2" height="0.0" fill="#16a34a" />
<rect x="671.5" y="200.0" width="1.2" height="0.0" fill="#16a34a" />
<rect x="673.1" y="200.0" width="1.2" height="31.5" fill="#dc2626" />
<rect x="674.7" y="200.0" width="1.2" height="9.6" fill="#dc2626" />
<rect x="676.2" y="154.6" width="1.2" height="45.4" fill="#16a34a" />
<rect x="677.8" y="200.0" width="1.2" height="0.0" fill="#16a34a" />
<rect x="679.4" y="200.0" width="1.2" height="6.1" fill="#dc2626" />
<rect x="681.0" y="200.0" width="1.2" height="0.0" fill="#16a34a" />
<rect x="682.6" y="200.0" width="1.2" height="0.0" fill="#16a34a" />
<rect x="684.2" y="196.4" width="1.2" height="3.6" fill="#16a34a" />
<rect x="685.8" y="200.0" width="1.2" height="20.2" fill="#dc2626" />
<rect x="687.3" y="189.6" width="1.2" height="10.4" fill="#16a34a" />
<rect x="688.9" y="200.0" width="1.2" height="45.3" fill="#dc2626" />
<rect x="690.5" y="177.8" width="1.2" height="22.2" fill="#16a34a" />
<rect x="692.1" y="200.0" width="1.2" height="0.0" fill="#16a34a" />
<rect x="693.7" y="200.0" width="1.2" height="0.0" fill="#16a34a" />
<rect x="695.3" y="200.0" width="1.2" height="0.0" fill="#16a34a" />
<rect x="696.9" y="200.0" width="1.2" height="0.0" fill="#16a34a" />
<rect x="698.5" y="200.0" width="1.2" height="0.0" fill="#16a34a" />
<rect x="700.0" y="200.0" width="1.2" height="0.0" fill="#16a34a" />
<rect x="701.6" y="200.0" width="1.2" height="0.0" fill="#16a34a" />
<rect x="703.2" y="200.0" width="1.2" height="0.0" fill="#16a34a" />
<rect x="704.8" y="200.0" width="1.2" height="0.0" fill="#16a34a" />
<rect x="706.4" y="200.0" width="1.2" height="0.0" fill="#16a34a" />
<rect x="708.0" y="200.0" width="1.2" height="8.0" fill="#dc2626" />
<rect x="709.6" y="195.2" width="1.2" height="4.8" fill="#16a34a" />
<rect x="711.1" y="200.0" width="1.2" height="37.6" fill="#dc2626" />
<rect x="712.7" y="182.9" width="1.2" height="17.1" fill="#16a34a" />
<rect x="714.3" y="200.0" width="1.2" height="0.0" fill="#16a34a" />
<rect x="715.9" y="200.0" width="1.2" height="0.0" fill="#16a34a" />
<rect x="717.5" y="200.0" width="1.2" height="12.3" fill="#dc2626" />
<rect x="719.1" y="200.0" width="1.2" height="19.4" fill="#dc2626" />
<rect x="720.7" y="200.0" width="1.2" height="5.7" fill="#dc2626" />
<rect x="722.3" y="200.0" width="1.2" height="0.0" fill="#16a34a" />
<rect x="723.8" y="186.2" width="1.2" height="13.8" fill="#16a34a" />
<rect x="725.4" y="200.0" width="1.2" height="0.0" fill="#16a34a" />
<rect x="727.0" y="200.0" width="1.2" height="0.0" fill="#16a34a" />
<rect x="728.6" y="197.3" width="1.2" height="2.7" fill="#16a34a" />
<rect x="730.2" y="200.0" width="1.2" height="0.0" fill="#dc2626" />
<rect x="731.8" y="197.8" width="1.2" height="2.2" fill="#16a34a" />
<rect x="733.4" y="200.0" width="1.2" height="2.2" fill="#dc2626" />
<rect x="734.9" y="200.0" width="1.2" height="9.4" fill="#dc2626" />
<rect x="736.5" y="200.0" width="1.2" height="0.0" fill="#16a34a" />
<rect x="738.1" y="200.0" width="1.2" height="0.0" fill="#16a34a" />
<rect x="739.7" y="200.0" width="1.2" height="6.6" fill="#dc2626" />
<rect x="741.3" y="200.0" width="1.2" height="4.6" fill="#dc2626" />
<rect x="742.9" y="200.0" width="1.2" height="7.9" fill="#dc2626" />
<rect x="744.5" y="200.0" width="1.2" height="19.8" fill="#dc2626" />
<rect x="746.1" y="200.0" width="1.2" height="22.3" fill="#dc2626" />
<rect x="747.6" y="200.0" width="1.2" height="0.0" fill="#16a34a" />
<rect x="749.2" y="200.0" width="1.2" height="0.0" fill="#16a34a" />
<rect x="750.8" y="200.0" width="1.2" height="24.5" fill="#dc2626" />
<rect x="752.4" y="193.5" width="1.2" height="6.5" fill="#16a34a" />
<rect x="754.0" y="195.2" width="1.2" height="4.8" fill="#16a34a" />
<rect x="755.6" y="200.0" width="1.2" height="8.8" fill="#dc2626" />
<rect x="757.2" y="193.5" width="1.2" height="6.5" fill="#16a34a" />
<rect x="758.7" y="200.0" width="1.2" height="0.0" fill="#16a34a" />
<rect x="760.3" y="200.0" width="1.2" height="0.0" fill="#16a34a" />
<rect x="761.9" y="194.9" width="1.2" height="5.1" fill="#16a34a" />
<rect x="763.5" y="200.0" width="1.2" height="9.9" fill="#dc2626" />
<rect x="765.1" y="196.6" width="1.2" height="3.4" fill="#16a34a" />
<rect x="766.7" y="200.0" width="1.2" height="12.3" fill="#dc2626" />
<rect x="768.3" y="200.0" width="1.2" height="8.6" fill="#dc2626" />
<rect x="769.9" y="200.0" width="1.2" height="0.0" fill="#16a34a" />
<rect x="771.4" y="200.0" width="1.2" height="0.0" fill="#16a34a" />
<rect x="773.0" y="200.0" width="1.2" height="0.0" fill="#16a34a" />
<rect x="774.6" y="194.2" width="1.2" height="5.8" fill="#16a34a" />
<rect x="776.2" y="191.4" width="1.2" height="8.6" fill="#16a34a" />
<rect x="777.8" y="200.0" width="1.2" height="3.5" fill="#dc2626" />
<rect x="779.4" y="200.0" width="1.2" height="4.0" fill="#dc2626" />
<rect x="781.0" y="200.0" width="1.2" height="0.0" fill="#16a34a" />
<rect x="782.5" y="200.0" width="1.2" height="0.0" fill="#16a34a" />
<rect x="784.1" y="192.6" width="1.2" height="7.4" fill="#16a34a" />
<rect x="785.7" y="184.1" width="1.2" height="15.9" fill="#16a34a" />
<rect x="787.3" y="200.0" width="1.2" height="8.7" fill="#dc2626" />
<rect x="788.9" y="200.0" width="1.2" height="2.8" fill="#dc2626" />
<rect x="790.5" y="200.0" width="1.2" height="6.1" fill="#dc2626" />
<rect x="792.1" y="200.0" width="1.2" height="0.0" fill="#16a34a" />
<rect x="793.7" y="200.0" width="1.2" height="0.0" fill="#16a34a" />
<rect x="795.2" y="196.7" width="1.2" height="3.3" fill="#16a34a" />
<rect x="796.8" y="200.0" width="1.2" height="5.9" fill="#dc2626" />
<rect x="798.4" y="200.0" width="1.2" height="3.1" fill="#dc2626" />
<text x="45" y="385" font-size="12" fill="#374151">green = estimated inflow, red = estimated outflow</text>
</svg>